<?xml version="1.0" standalone="no"?>
<!DOCTYPE svg PUBLIC "-//W3C//DTD SVG 1.1//EN" "http://www.w3.org/Graphics/SVG/1.1/DTD/svg11.dtd" >
<svg xmlns="http://www.w3.org/2000/svg">
<metadata></metadata>
<defs>
<font id="novel_sans_rd_proregular" horiz-adv-x="1202" >
<font-face units-per-em="2048" ascent="1638" descent="-410" />
<missing-glyph horiz-adv-x="329" />
<glyph unicode="&#xfb03;" horiz-adv-x="1880" d="M35 905v39q0 44 43 47l121 15v65q0 151 22 242q36 141 138 209.5t255 68.5q54 0 103 -8q43 -10 37 -53l-6 -55q-3 -41 -35 -41l-29 3q-28 3 -63 3q-102 0 -160.5 -48.5t-69.5 -162.5q-6 -31 -6 -125v-98h483v36q0 137 20 235.5t85 172.5q119 141 381 141q122 0 223 -24 q43 -13 37 -56l-6 -55q-3 -39 -41 -39l-72 11q-72 12 -141 12q-161 0 -236 -84q-30 -33 -45 -84t-17.5 -93t-2.5 -118v-55h231q48 0 45 -50l-4 -53q-3 -45 -47 -45h-225v-811q0 -47 -45 -47h-95q-45 0 -45 47v811h-483v-811q0 -47 -47 -47h-94q-45 0 -45 47v811h-117 q-47 0 -47 47zM1536 47v920q0 41 43 47l94 8q47 3 47 -43v-932q0 -47 -45 -47h-94q-45 0 -45 47z" />
<glyph unicode="&#xfb04;" horiz-adv-x="1894" d="M35 905v39q0 44 43 47l121 15v65q0 151 22 242q36 141 138 209.5t255 68.5q54 0 103 -8q43 -10 37 -53l-6 -55q-3 -41 -35 -41q-3 0 -30.5 3t-61.5 3q-102 0 -160.5 -48.5t-69.5 -162.5q-6 -31 -6 -125v-98h483v36q0 137 20 235.5t85 172.5q119 141 381 141 q123 0 213 -22l106 10q47 6 47 -43v-1489q0 -47 -45 -47h-94q-45 0 -45 47v1372q-89 21 -182 21q-161 0 -236 -84q-30 -33 -45 -84t-17.5 -93t-2.5 -118v-55h231q48 0 45 -50l-4 -53q-3 -45 -47 -45h-225v-811q0 -47 -45 -47h-95q-45 0 -45 47v811h-483v-811q0 -47 -47 -47 h-94q-45 0 -45 47v811h-117q-47 0 -47 47z" />
<glyph horiz-adv-x="2048" />
<glyph horiz-adv-x="2048" />
<glyph unicode="&#xd;" horiz-adv-x="2048" />
<glyph unicode=" "  horiz-adv-x="329" />
<glyph unicode="&#x09;" horiz-adv-x="329" />
<glyph unicode="&#xa0;" horiz-adv-x="329" />
<glyph unicode="!" horiz-adv-x="555" d="M156 111q0 52 34.5 87t90.5 35q53 0 86.5 -36.5t33.5 -92.5q0 -53 -35.5 -87.5t-89.5 -34.5q-53 0 -86.5 36.5t-33.5 92.5zM172 1415q0 39 39 39h131q39 0 39 -39q-4 -463 -16 -835q-4 -87 -14 -111.5t-40 -24.5h-69q-30 0 -40 24.5t-14 111.5q-5 166 -9 374.5t-5 334.5z " />
<glyph unicode="&#x22;" horiz-adv-x="763" d="M115 1415q0 39 39 39h96q40 0 37 -39l-2 -145q-5 -154 -15 -273q-6 -36 -41 -36h-55q-37 0 -43 36q0 1 -5 102t-7 171zM477 1415q0 39 39 39h96q40 0 37 -39l-2 -145q-6 -175 -14 -273q-6 -36 -41 -36h-55q-37 0 -43 36q0 8 -5.5 106t-7.5 167z" />
<glyph unicode="#" d="M51 330l6 65q5 37 41 37h148l55 445h-143q-43 0 -37 41l8 65q3 37 39 37h149l31 240q3 34 41 34h78q43 0 37 -41l-29 -233h330l31 240q3 34 41 34h77q43 0 37 -41l-28 -233h143q43 0 37 -43l-8 -66q-3 -34 -39 -34h-150l-55 -445h143q40 0 37 -39l-8 -67q-3 -37 -39 -37 h-152l-28 -254q-6 -35 -41 -35h-80q-42 0 -39 41l33 248h-330l-31 -254q-6 -35 -41 -35h-79q-42 0 -39 41l32 248h-143q-41 0 -35 41zM403 432h330l55 445h-329z" />
<glyph unicode="$" d="M137 188q0 39 31 39q8 0 51.5 -15t120 -30.5t162.5 -17.5l18 516q-192 81 -273 180t-81 223q2 143 109.5 248.5t302.5 124.5l8 170q3 31 30 31l52 -2q28 -3 28 -33l-8 -162q131 -3 260 -39q41 -9 35 -49l-6 -78q-3 -37 -37 -37q-4 0 -41 10.5t-97 21t-120 11.5l-18 -479 q139 -54 224.5 -123t117.5 -138.5t32 -153.5q0 -67 -25 -132t-75 -123.5t-136.5 -99.5t-197.5 -53l-8 -168q0 -14 -8 -22t-21 -7l-51 2q-29 3 -29 31l7 162q-152 3 -318 61q-35 11 -35 47zM362 1096q0 -65 43.5 -121.5t149.5 -108.5l16 428q-101 -13 -155 -69.5t-54 -128.5z M612 168q113 16 166 79t53 144q0 67 -42.5 127.5t-159.5 116.5z" />
<glyph unicode="%" horiz-adv-x="1671" d="M84 1100q0 95 26.5 168.5t72.5 117.5t103.5 66.5t123.5 22.5q139 0 226 -95.5t87 -265.5q0 -186 -92.5 -280.5t-231.5 -94.5q-140 0 -227.5 95.5t-87.5 265.5zM229 1114q0 -123 47.5 -188.5t131.5 -65.5q170 0 170 240q0 123 -47 187.5t-132 64.5q-170 0 -170 -238z M446 39l693 1487q15 31 45 16l61 -24q32 -16 17 -45l-691 -1489q-17 -31 -45 -17l-63 27q-29 15 -17 45zM954 340q0 95 26.5 168.5t72.5 117.5t103.5 66.5t123.5 22.5q141 0 228 -94.5t87 -264.5q0 -96 -26.5 -169.5t-72 -118t-103 -66.5t-123.5 -22q-140 0 -228 95t-88 265 zM1102 354q0 -123 47 -187.5t131 -64.5q170 0 170 240q0 122 -47 187t-131 65q-170 0 -170 -240z" />
<glyph unicode="&#x26;" horiz-adv-x="1654" d="M115 406q0 244 293 393q-187 176 -187 336q0 147 110 243.5t285 96.5q173 0 273 -93t100 -233q0 -243 -305 -387q211 -202 424 -365q113 152 113 400q0 54 -15 178q-4 55 37 55h92q36 0 43 -33q27 -103 27 -194q0 -141 -34.5 -265.5t-119.5 -242.5q140 -105 285 -182 q20 -14 21 -30t-19 -30l-80 -67q-29 -23 -57 -6q-120 68 -275 182q-96 -88 -221.5 -135t-259.5 -47q-129 0 -233 36.5t-167 97t-96.5 135.5t-33.5 157zM305 424q0 -116 93 -200.5t257 -84.5q191 0 332 129q-188 149 -479 424q-107 -50 -155 -121t-48 -147zM401 1141 q0 -63 34.5 -123t137.5 -156q73 33 124.5 72.5t75 77.5t33 68t9.5 59q0 86 -57 138t-150 52q-96 0 -151.5 -50.5t-55.5 -137.5z" />
<glyph unicode="'" horiz-adv-x="401" d="M115 1415q0 39 39 39h96q40 0 37 -39l-2 -145q-5 -154 -15 -273q-6 -36 -41 -36h-55q-37 0 -43 36q0 1 -5 102t-7 171z" />
<glyph unicode="(" horiz-adv-x="972" d="M178 553q0 768 604 1167q26 17 54 2l57 -34q20 -12 20.5 -27.5t-18.5 -28.5q-543 -372 -543 -1079t543 -1079q20 -14 20 -29t-20 -27l-59 -34q-28 -15 -54 2q-604 401 -604 1167z" />
<glyph unicode=")" horiz-adv-x="972" d="M59.5 -554.5q-0.5 15.5 18.5 28.5q543 372 543 1079t-543 1079q-19 13 -18.5 28.5t20.5 27.5l57 34q31 15 51 0q607 -398 607 -1169q0 -768 -602 -1167q-26 -17 -54 -2l-59 34q-20 12 -20.5 27.5z" />
<glyph unicode="*" horiz-adv-x="976" d="M134.5 917.5q3.5 13.5 27.5 28.5q162 87 264 121q-110 37 -264 123q-24 13 -27.5 28t10.5 39l19 29q14 25 27 29.5t38 -10.5q130 -81 234 -172q-27 135 -27 299q0 41 39 41h55q22 0 31.5 -9.5t9.5 -31.5q0 -159 -28 -299q116 98 235 172q25 15 38.5 10.5t27.5 -29.5 l18 -29q14 -24 11 -39t-27 -28q-140 -81 -264 -123q119 -40 264 -121q24 -15 27 -29t-11 -38l-18 -31q-14 -24 -27.5 -27.5t-38.5 10.5q-119 72 -235 170q28 -136 28 -296q0 -22 -9.5 -31.5t-31.5 -9.5h-55q-39 0 -39 41q0 165 27 296q-104 -92 -234 -170q-25 -14 -38 -10.5 t-27 27.5l-19 31q-14 25 -10.5 38.5z" />
<glyph unicode="+" horiz-adv-x="1122" d="M74 588v67q0 39 39 39h374v338q0 39 39 39h68q39 0 39 -39v-338h377q39 0 39 -39v-67q0 -39 -39 -39h-377v-338q0 -39 -39 -39h-68q-39 0 -39 39v338h-374q-39 0 -39 39z" />
<glyph unicode="," horiz-adv-x="438" d="M23 -242q0 10 24 38.5t52.5 61t52 80.5t22.5 93q-1 40 -19 71.5t-35.5 52.5t-17.5 35q0 28 36.5 52t70.5 24q68 0 110.5 -54.5t42.5 -127.5q0 -137 -118 -279q-104 -114 -133 -114q-17 0 -48 24q-26 18 -33 25.5t-7 17.5z" />
<glyph unicode="-" horiz-adv-x="641" d="M47 526v74q0 39 39 39h469q39 0 39 -39v-74q0 -39 -39 -39h-469q-39 0 -39 39z" />
<glyph unicode="." horiz-adv-x="487" d="M119 111q0 53 35 89t92 36q55 0 89 -38t34 -94q0 -54 -36 -89t-91 -35q-54 0 -88.5 37t-34.5 94z" />
<glyph unicode="/" horiz-adv-x="956" d="M2 -428l809 2159q12 37 49 22l72 -27q37 -12 22 -49l-809 -2158q-11 -35 -47 -23l-73 27q-35 14 -23 49z" />
<glyph unicode="0" d="M72 713q0 374 146.5 568t397.5 194q114 0 206 -43t162 -130t108 -229.5t38 -331.5q0 -374 -146.5 -567.5t-397.5 -193.5q-114 0 -206 42.5t-162 129.5t-108 229.5t-38 331.5zM272 729q0 -286 85 -434t237 -148q76 0 136 31.5t105.5 98.5t70 180.5t24.5 267.5 q0 286 -85.5 434t-238.5 148q-156 0 -245 -138t-89 -440z" />
<glyph unicode="1" d="M145 1352q-3 50 43 53l299 43q44 6 72 6h98q52 0 52 -49v-1247l243 -8q49 0 49 -52v-49q0 -49 -49 -49h-710q-49 0 -49 49v49q0 52 49 52l274 8v1126l-311 -33q-49 -6 -55 43z" />
<glyph unicode="2" d="M162 49v68q0 36 24 63l265 285q106 115 175.5 205t103.5 157t46 113.5t12 95.5q0 126 -82.5 198.5t-209.5 72.5q-71 0 -136.5 -20.5t-106.5 -41t-52 -20.5q-26 0 -33 39l-4 63q-2 23 7 38t34 28q158 82 323 82q208 0 337.5 -119t129.5 -305q0 -87 -28 -171.5 t-115.5 -212.5t-239.5 -286l-200 -211h606q25 0 37.5 -14t9.5 -39l-6 -70q-6 -47 -53 -47h-793q-51 0 -51 49z" />
<glyph unicode="3" d="M156 205q0 43 30 43q10 0 43 -16t73 -35.5t105 -35.5t132 -16q133 0 208.5 66t75.5 172q0 100 -86.5 178t-275.5 107q-49 9 -49 53v53q0 44 49 53q93 15 161.5 45t105.5 67.5t54 77t17 81.5q0 92 -72 152.5t-195 60.5q-77 0 -145.5 -21t-110 -42t-53.5 -21q-27 0 -30 39 l-7 61q-3 45 35 62q155 86 334 86q206 0 324 -106t118 -253q0 -107 -71.5 -205.5t-227.5 -148.5q70 -18 127 -49.5t94.5 -69t63 -81.5t36.5 -86.5t11 -84.5q0 -79 -30.5 -151t-89.5 -131t-154.5 -94t-214.5 -35q-189 0 -348 94q-35 17 -35 57z" />
<glyph unicode="4" d="M63 403v62q0 29 19 61l612 897q22 31 60 31h120q50 0 50 -49v-887h147q49 0 49 -53l-6 -64q-6 -47 -45 -47h-145v-305q0 -49 -50 -49h-92q-49 0 -49 49v305h-620q-50 0 -50 49zM268 518h465v531q0 45 1.5 86.5t3.5 60.5l1 18z" />
<glyph unicode="5" d="M190 115v78q0 40 31 40q10 0 51 -20.5t110.5 -41.5t147.5 -21q134 0 208.5 76.5t74.5 181.5q0 48 -17.5 93.5t-60 91.5t-106 82t-164 62.5t-225.5 34.5q-56 3 -47 55l106 574q6 42 51 45l641 39q53 3 47 -49l-8 -82q-6 -44 -53 -47l-520 -33l-64 -352q137 -15 246 -51 t180 -84.5t118 -110.5t67 -125.5t20 -132.5q0 -81 -31.5 -158t-89.5 -140t-152.5 -101.5t-209.5 -38.5q-165 0 -316 75q-35 17 -35 60z" />
<glyph unicode="6" d="M117 651q0 199 58 356t162.5 257t246.5 152t313 52q22 0 84 -4q47 -3 47 -51v-65q0 -48 -47 -48q-11 0 -33 1.5t-41 1.5q-157 0 -280.5 -53.5t-204 -167.5t-92.5 -275q135 74 284 74q97 0 183 -31t150 -87t101 -139.5t37 -183.5q0 -123 -54.5 -227t-161 -168.5 t-244.5 -64.5q-104 0 -194 40.5t-161 120t-112 210.5t-41 300zM315 641q-3 -108 15.5 -195.5t50 -142.5t74 -91.5t84.5 -51.5t84 -15q116 0 188 75t72 204q0 125 -84.5 207t-220.5 82q-145 0 -263 -72z" />
<glyph unicode="7" d="M145 1323l5 84q3 47 53 47h796q50 0 50 -49v-84q0 -27 -15 -61l-604 -1242q-19 -40 -63 -24l-78 31q-49 18 -25 65l574 1182h-645q-51 0 -48 51z" />
<glyph unicode="8" d="M111 362q0 237 284 371q-73 37 -125.5 83.5t-79.5 94t-39 90.5t-12 86q0 165 129 276.5t342 111.5q203 0 322 -100.5t119 -256.5q0 -111 -67 -203t-204 -153q90 -39 154.5 -88t97.5 -100t47.5 -98.5t14.5 -96.5q0 -56 -19 -112t-60 -108t-98.5 -91.5t-142 -63.5 t-184.5 -24q-215 0 -347 107.5t-132 274.5zM307 377q0 -101 79.5 -171.5t217.5 -70.5q129 0 204 68t75 157q0 202 -324 308q-139 -58 -195.5 -130t-56.5 -161zM342 1102q0 -172 264 -279q254 97 254 285q0 92 -70 153.5t-190 61.5q-118 0 -188 -62t-70 -159z" />
<glyph unicode="9" d="M119 1014q0 92 32 175t90 147t145.5 101.5t191.5 37.5q82 0 156.5 -25t139.5 -78t112 -131t74 -190t27 -248q0 -160 -38 -293t-107 -229.5t-166 -163t-215.5 -99t-255.5 -32.5q-22 0 -84 4q-47 3 -47 51v65q0 48 47 48q9 0 31 -1t43 -1q157 0 280.5 53.5t204 167 t92.5 274.5q-135 -74 -284 -74q-200 0 -334.5 121t-134.5 320zM319 1030q0 -125 85 -207t221 -82q144 0 262 72q3 108 -15.5 195.5t-49.5 142.5t-73 91.5t-84 51.5t-85 15q-116 0 -188.5 -75.5t-72.5 -203.5z" />
<glyph unicode=":" horiz-adv-x="487" d="M119 111q0 53 35 89t92 36q55 0 89 -38t34 -94q0 -54 -36 -89t-91 -35q-54 0 -88.5 37t-34.5 94zM119 819q0 53 35 89t92 36q55 0 89 -37.5t34 -93.5q0 -54 -36 -89.5t-91 -35.5q-54 0 -88.5 37t-34.5 94z" />
<glyph unicode=";" horiz-adv-x="512" d="M51 -242q0 10 24 38.5t52.5 61t52.5 80.5t23 93q-1 40 -19 71.5t-35.5 52.5t-17.5 35q0 28 36.5 52t70.5 24q68 0 110.5 -54.5t42.5 -127.5q0 -136 -119 -279q-104 -114 -133 -114q-16 0 -47 24q-26 18 -33.5 25.5t-7.5 17.5zM139 819q0 53 35 89t92 36q55 0 89 -37.5 t34 -93.5q0 -54 -36 -89.5t-91 -35.5q-54 0 -88.5 37t-34.5 94z" />
<glyph unicode="&#x3c;" horiz-adv-x="1159" d="M68 580v67q0 33 28 47l948 471q22 11 35 4t13 -30v-76q0 -31 -29 -45l-803 -400l803 -401q29 -15 29 -45v-84q0 -22 -13 -29.5t-35 2.5l-948 471q-28 14 -28 48z" />
<glyph unicode="=" horiz-adv-x="1122" d="M74 354v68q0 39 39 39h897q39 0 39 -39v-68q0 -39 -39 -39h-897q-39 0 -39 39zM74 793v65q0 39 39 39h897q39 0 39 -39v-65q0 -39 -39 -39h-897q-39 0 -39 39z" />
<glyph unicode="&#x3e;" horiz-adv-x="1159" d="M68 94v78q0 31 28 45l801 399l-801 402q-28 14 -28 45v82q0 22 12.5 29t32.5 -3l950 -471q29 -14 29 -47v-67q0 -32 -29 -47l-950 -471q-20 -11 -32.5 -4t-12.5 30z" />
<glyph unicode="?" horiz-adv-x="858" d="M111 1386q-3 40 47 54q96 35 219 35q91 0 166 -27t121.5 -72t72 -101t25.5 -116q0 -87 -42 -159.5t-136 -145.5l-47 -37q-70 -56 -95.5 -100t-25.5 -92q0 -34 20.5 -81t20.5 -52q0 -23 -31 -33l-78 -25q-33 -10 -59 31q-66 100 -66 192q0 65 37 130t133 141l47 37 q68 53 95.5 95.5t27.5 90.5q0 69 -61 116.5t-162 47.5q-55 0 -119 -16.5t-69 -16.5q-26 0 -31 35zM242 111q0 52 34.5 87t90.5 35q53 0 86.5 -36.5t33.5 -92.5q0 -53 -35 -87.5t-90 -34.5q-53 0 -86.5 36.5t-33.5 92.5z" />
<glyph unicode="@" horiz-adv-x="2258" d="M176 500q0 224 77 409.5t209.5 308.5t310.5 190t380 67q216 0 393 -66.5t294 -182.5t180 -273.5t63 -340.5q0 -134 -30.5 -245t-80 -185t-115.5 -125t-135 -73.5t-139 -22.5q-89 0 -148 35.5t-94 112.5q-140 -134 -321 -134q-133 0 -219 73t-86 194q0 49 14.5 92.5 t55 88.5t104.5 77.5t170.5 54t245.5 23.5v32q0 117 -23 164q-46 100 -192 100q-70 0 -134 -16t-102 -32.5t-45 -16.5q-27 0 -29 33l-6 55q-3 33 25 47q136 78 307 78q239 0 326 -148q29 -47 38 -107.5t9 -156.5v-331q0 -82 31 -130.5t96 -48.5q37 0 75.5 14.5t81 51t75 90 t54 141t21.5 195.5q0 155 -51.5 289t-147 234t-242 157t-327.5 57q-163 0 -307.5 -54.5t-254 -155.5t-173.5 -256t-64 -343q0 -217 63.5 -386.5t179 -278t274.5 -164.5t354 -56q80 0 147.5 10.5t105.5 20.5t46 10q32 0 32 -36l4 -68q3 -36 -32 -45q-157 -39 -324 -39 q-224 0 -409.5 64t-322 187.5t-212.5 318t-76 442.5zM885 258q0 -64 47.5 -103.5t134.5 -39.5q130 0 238 92v242q-118 2 -203.5 -13.5t-130.5 -44.5t-65.5 -62t-20.5 -71z" />
<glyph unicode="A" horiz-adv-x="1501" d="M119 57l489 1354q14 38 56 41l135 4h5q37 0 52 -39l522 -1360q4 -12 4 -22q0 -12 -6 -20q-10 -15 -39 -15h-112q-43 0 -58 41l-137 367h-592l-127 -367q-12 -41 -55 -41h-96q-28 0 -39 16q-6 9 -6 20q0 9 4 21zM492 565h481l-189 504q-53 142 -61 176q-1 -1 -6.5 -18.5 t-20 -63.5t-30.5 -96z" />
<glyph unicode="B" horiz-adv-x="1323" d="M209 49v1356q0 49 49 49h256q161 0 280.5 -41t190 -129t70.5 -215q0 -109 -65.5 -193.5t-174.5 -115.5q165 -28 252.5 -129.5t87.5 -229.5q0 -102 -53.5 -187.5t-151.5 -139.5q-129 -74 -403 -74h-289q-49 0 -49 49zM406 156h157q161 0 240 32q147 63 147 209 q0 123 -108 199t-310 76h-126v-516zM406 815h114q77 0 125 7t86 28q127 70 127 209q0 115 -93.5 181.5t-256.5 66.5h-102v-492z" />
<glyph unicode="C" horiz-adv-x="1601" d="M133 723q0 210 77.5 362t205.5 244q197 146 514 146q206 0 403 -72q39 -11 39 -51v-6l-8 -74q-5 -41 -41 -41q-8 0 -62 18t-146 36t-193 18q-249 0 -392 -117q-192 -154 -192 -451q0 -120 40 -225.5t114.5 -184.5t190.5 -125t259 -46q108 0 210 23t162.5 46t69.5 23 q33 0 33 -38v-7l-6 -74q-3 -45 -41 -55q-215 -92 -442 -92q-301 0 -496 133q-140 96 -219.5 256.5t-79.5 353.5z" />
<glyph unicode="D" horiz-adv-x="1665" d="M209 49v1356q0 49 49 49q125 2 342 2q250 0 438 -54t310 -190q178 -187 178 -460q0 -293 -183 -496q-105 -127 -264 -193.5t-397 -66.5q-268 0 -424 4q-49 0 -49 49zM406 168q111 -4 282 -4q190 0 314.5 53.5t201.5 159.5q117 139 117 354q0 221 -133 365 q-95 104 -235 148t-359 44q-120 0 -188 -2v-1118z" />
<glyph unicode="E" horiz-adv-x="1220" d="M209 49v1356q0 49 49 49h680q49 0 49 -49v-70q0 -49 -49 -49h-532v-467h491q49 0 49 -49v-63q0 -50 -49 -50h-491v-489h577q49 0 49 -46v-5l-6 -70q-3 -47 -51 -47h-717q-49 0 -49 49z" />
<glyph unicode="F" horiz-adv-x="1175" d="M209 49v1356q0 49 49 49h680q49 0 49 -49v-70q0 -49 -49 -49h-532v-518h512q49 0 49 -49v-68q0 -49 -49 -49h-512v-553q0 -49 -50 -49h-98q-49 0 -49 49z" />
<glyph unicode="G" horiz-adv-x="1638" d="M133 731q0 204 74.5 352.5t200.5 239.5q209 152 532 152q223 0 412 -66q39 -11 39 -51v-6l-9 -74q-3 -41 -39 -41q-4 0 -60.5 16.5t-152 33t-194.5 16.5q-271 0 -414 -123q-184 -152 -184 -435q0 -126 38.5 -233t113 -188t192 -126.5t266.5 -45.5q134 0 287 38v428 q0 52 49 52h98q50 0 50 -52v-382q0 -45 1 -82t1 -48q0 -43 -43 -55q-238 -71 -457 -71q-311 0 -500 133q-141 95 -221 257.5t-80 360.5z" />
<glyph unicode="H" horiz-adv-x="1581" d="M209 49v1356q0 49 49 49h98q50 0 50 -49v-588h770v588q0 49 49 49h98q51 0 51 -49v-1356q0 -49 -51 -49h-98q-49 0 -49 49v596h-770v-596q0 -49 -50 -49h-98q-49 0 -49 49z" />
<glyph unicode="I" horiz-adv-x="614" d="M209 49v1356q0 49 49 49h98q50 0 50 -49v-1356q0 -49 -50 -49h-98q-49 0 -49 49z" />
<glyph unicode="J" horiz-adv-x="616" d="M-10 -438q-9 15 -9 29q0 21 23 40q124 93 165.5 186t41.5 261v1327q0 49 51 49h98q50 0 50 -49v-1284q0 -166 -30.5 -279t-100 -198.5t-191.5 -157.5q-16 -8 -29 -8q-25 0 -39 28z" />
<glyph unicode="K" horiz-adv-x="1470" d="M209 49v1356q0 49 49 49h98q50 0 50 -49v-1356q0 -49 -50 -49h-98q-49 0 -49 49zM454 741q0 16 19 39l598 645q23 29 62 29h120q32 0 41.5 -18t-12.5 -41l-604 -637l622 -699q15 -17 15 -31q0 -5 -2 -10q-8 -18 -39 -18h-152q-38 0 -61 29l-588 673q-19 23 -19 39z" />
<glyph unicode="L" horiz-adv-x="1163" d="M209 49v1356q0 49 49 49h98q50 0 50 -49v-1237h577q49 0 49 -46v-5l-6 -70q-3 -47 -51 -47h-717q-49 0 -49 49z" />
<glyph unicode="M" horiz-adv-x="2080" d="M203 51l51 1354q3 49 53 49h174q44 0 56 -39l495 -1182l510 1182q16 39 57 39h175q48 0 51 -49l55 -1354q0 -51 -47 -51h-98q-49 0 -52 49l-38 912q-5 144 -5 249q-36 -99 -86 -213l-415 -958q-16 -39 -56 -39h-116q-44 0 -56 39l-405 962q-57 133 -80 207q2 -37 2 -84 q0 -70 -4 -163l-35 -912q-3 -49 -51 -49h-86q-49 0 -49 46v5z" />
<glyph unicode="N" horiz-adv-x="1662" d="M209 49v1356q0 49 49 49h127q34 0 59 -31l828 -1128q-4 47 -4 203v907q0 49 49 49h88q49 0 49 -49v-1356q0 -49 -49 -49h-125q-34 0 -59 31l-832 1138q6 -71 6 -233v-887q0 -49 -51 -49h-86q-49 0 -49 49z" />
<glyph unicode="O" horiz-adv-x="1792" d="M133 743q0 190 77 338.5t210 243.5q202 152 483 152q349 0 555 -209q201 -204 201 -520q0 -202 -82 -367t-227 -268q-188 -136 -473 -136q-135 0 -260.5 45t-219.5 121q-127 104 -195.5 260t-68.5 340zM340 764q0 -148 48.5 -271t139.5 -206q65 -62 158.5 -99.5 t190.5 -37.5h16q206 0 340 98q105 77 162 201.5t57 279.5q0 257 -158 418q-152 158 -411 158q-203 0 -348 -117q-90 -67 -142.5 -179t-52.5 -245z" />
<glyph unicode="P" horiz-adv-x="1245" d="M209 49v1356q0 49 49 49h213q155 0 262.5 -23.5t194.5 -84.5q182 -124 182 -357q0 -136 -64 -245t-180 -169q-112 -56 -259 -56q-21 0 -42 1q-23 -1 -36 12t-13 37v56q0 33 13 43.5t57 11.5h3q145 0 231 85q86 86 87 210q0 158 -123 239q-104 70 -305 70h-73v-1235 q0 -49 -50 -49h-98q-49 0 -49 49z" />
<glyph unicode="Q" horiz-adv-x="1794" d="M133 743q0 190 77 338.5t210 243.5q202 152 483 152q349 0 555 -209q201 -204 201 -520q0 -178 -66 -332.5t-199.5 -266t-314.5 -147.5q180 -138 345 -206t356 -68q49 0 93.5 4t53.5 4q37 0 37 -37v-6l-2 -49q-3 -45 -37 -54q-75 -22 -194 -22q-247 0 -450.5 95 t-461.5 319q-121 7 -230.5 50t-191.5 111q-127 104 -195.5 260t-68.5 340zM340 764q0 -148 48.5 -271t139.5 -206q65 -62 158.5 -99.5t190.5 -37.5h16q206 0 340 98q105 77 162 201.5t57 279.5q0 257 -158 418q-152 158 -411 158q-203 0 -348 -117q-90 -67 -142.5 -179 t-52.5 -245z" />
<glyph unicode="R" horiz-adv-x="1484" d="M209 49v1356q0 49 49 49h250q170 0 283 -32.5t192 -102.5q137 -116 137 -307q0 -272 -243 -387l172 -222q97 -126 171.5 -182t157.5 -76q40 -10 40 -46q0 -6 -1 -13l-10 -49q-6 -45 -46 -45h-5q-102 3 -173.5 29.5t-147.5 95t-175 200.5l-182 242h-272v-510 q0 -49 -50 -49h-98q-49 0 -49 49zM406 715q117 -4 221 -4q124 0 204 80q82 76 82 204q0 58 -23.5 113.5t-68.5 95.5q-56 48 -129 66t-184 18h-102v-573z" />
<glyph unicode="S" horiz-adv-x="1185" d="M127 170q-2 45 37 45q9 0 57.5 -15t128 -30.5t164.5 -15.5q82 0 143 20.5t94 54.5t48.5 72t15.5 80q0 36 -8 65t-30.5 61.5t-68 64.5t-114.5 63l-115 53q-177 80 -249 174.5t-72 222.5q1 78 33 147t92 124t156 87t216 32q146 0 283 -39q41 -10 41 -52v-6l-8 -69 q-5 -43 -37 -43q-1 0 -92.5 20.5t-179.5 20.5q-147 0 -220 -58.5t-73 -148.5q0 -72 48 -129.5t185 -118.5l115 -49q176 -79 247.5 -177.5t71.5 -226.5q0 -60 -18 -118t-58.5 -113t-99.5 -96.5t-148.5 -66.5t-197.5 -25q-179 0 -344 57q-38 14 -41 57z" />
<glyph unicode="T" horiz-adv-x="1288" d="M84 1335v70q0 49 49 49h1030q49 0 49 -47v-6l-6 -68q-3 -47 -49 -47h-416v-1237q0 -49 -49 -49h-98q-51 0 -51 49v1237h-410q-49 0 -49 49z" />
<glyph unicode="U" horiz-adv-x="1583" d="M199 705v700q0 49 51 49h98q49 0 49 -49v-703q0 -156 18 -252t70 -165q102 -133 320 -133q199 0 295 120q54 66 76 158t22 242v733q0 49 49 49h88q49 0 49 -49v-705q0 -203 -28.5 -324.5t-108.5 -211.5q-71 -84 -188 -135.5t-271 -51.5q-330 0 -477 201q-64 86 -88 207 t-24 320z" />
<glyph unicode="V" horiz-adv-x="1415" d="M78 1397q-4 12 -4 22q0 11 5 19q10 16 38 16h112q41 0 56 -41l436 -1202l426 1202q11 41 55 41h96q27 0 38 -15q6 -9 6 -21q0 -9 -3 -21l-497 -1354q-14 -38 -56 -41l-141 -4h-5q-37 0 -54 39z" />
<glyph unicode="W" horiz-adv-x="2164" d="M78 1399q-4 11 -4 20q0 11 6 20q11 15 39 15h108q44 0 56 -41l415 -1212l291 880l-112 316q-9 26 2 41.5t39 15.5h102q42 0 57 -41l420 -1206l393 1206q12 41 56 41h94q26 0 38 -15q7 -9 6 -21q0 -9 -3 -19l-461 -1356q-11 -38 -55 -41l-146 -4h-5q-37 0 -52 39l-285 797 l-268 -791q-14 -38 -55 -41l-146 -4h-6q-38 0 -49 39z" />
<glyph unicode="X" horiz-adv-x="1468" d="M130 1437q8 17 40 17h131q36 0 61 -31l379 -549l357 547q20 33 59 33h103q31 0 40 -17t-8 -42l-438 -666l475 -670q11 -16 11 -29q0 -7 -4 -13q-10 -17 -38 -17h-135q-36 0 -61 31l-385 553l-357 -551q-17 -33 -59 -33h-104q-31 0 -41.5 17t6.5 42l444 668l-467 668 q-11 17 -11 30q-1 6 2 12z" />
<glyph unicode="Y" horiz-adv-x="1361" d="M66 1437q10 17 40 17h123q42 0 62 -33l405 -614l398 614q20 33 59 33h102q30 0 40 -17q4 -6 4 -14q0 -12 -11 -28l-506 -764v-582q0 -49 -49 -49h-98q-49 0 -49 49v580l-512 766q-11 16 -11 29q0 7 3 13z" />
<glyph unicode="Z" horiz-adv-x="1329" d="M117 49v66q0 33 18 59l744 1110h-699q-51 0 -51 49v72q0 49 51 49h903q52 0 52 -49v-53q0 -33 -21 -60l-754 -1122h793q48 0 48 -41q0 -5 -1 -10l-6 -72q-3 -47 -49 -47h-979q-49 0 -49 49z" />
<glyph unicode="[" horiz-adv-x="741" d="M193 -582v2263q0 39 38 39h416q40 0 37 -39l-2 -49q-3 -39 -39 -39h-283v-2087h287q40 0 37 -38l-2 -50q0 -39 -39 -39h-412q-38 0 -38 39z" />
<glyph unicode="\" horiz-adv-x="956" d="M2 1677q-15 37 23 49l71 27q37 15 49 -22l809 -2159q12 -35 -22 -49l-74 -27q-36 -12 -47 23z" />
<glyph unicode="]" horiz-adv-x="741" d="M57 -582l2 50q3 38 39 38h285v2087h-289q-40 0 -37 39l2 49q3 39 39 39h412q39 0 39 -39v-2263q0 -39 -39 -39h-416q-40 0 -37 39z" />
<glyph unicode="^" horiz-adv-x="1005" d="M90 517.5q-9 13.5 0 35.5l334 717q15 30 49 30h62q34 0 49 -30l329 -717q11 -22 2.5 -35.5t-34.5 -13.5h-78q-36 0 -49 33l-254 563l-250 -563q-13 -33 -49 -33h-78q-24 0 -33 13.5z" />
<glyph unicode="_" horiz-adv-x="1024" d="M0 -98q0 39 39 39h946q39 0 39 -39v-82q0 -39 -39 -39h-946q-39 0 -39 39v82z" />
<glyph unicode="`" horiz-adv-x="702" d="M113 1495l22 82q13 43 51 18l383 -266q30 -18 19 -51l-19 -57q-6 -19 -20 -24.5t-31 3.5l-385 246q-30 15 -20 49z" />
<glyph unicode="a" horiz-adv-x="1079" d="M90 250q0 51 15 95.5t56 91t106 79.5t174 54.5t251 23.5v35q0 118 -20 164q-48 102 -199 102q-69 0 -133 -16.5t-103.5 -33t-48.5 -16.5q-26 0 -32 39l-4 45q-2 24 7 39.5t34 28.5q142 68 299 68q245 0 333 -150q30 -50 39.5 -112t9.5 -160v-375q0 -74 23 -103t84 -34 q29 -3 40 -15q9 -10 9 -27v-7l-2 -31q-3 -44 -43 -49q-29 -4 -80 -4q-147 0 -186 120q-131 -125 -316 -125q-137 0 -225 75t-88 198zM268 268q0 -64 48.5 -105.5t134.5 -41.5q131 0 241 94v246h-26q-104 0 -180 -14q-86 -16 -131.5 -45.5t-66 -62.5t-20.5 -71z" />
<glyph unicode="b" d="M150 86q8 62 8 156v1282q0 41 43 47l94 8q5 1 10 1q39 0 39 -44v-492q0 -87 -8 -143q117 148 317 148q187 0 308.5 -133.5t121.5 -374.5q0 -260 -148 -412t-415 -152q-174 0 -317 46q-35 13 -45 25q-8 10 -9 27q0 5 1 11zM338 162q98 -35 207 -35q161 0 253.5 100.5 t92.5 286.5q0 184 -82.5 280.5t-198.5 96.5q-151 0 -266 -125v-477q0 -94 -6 -127z" />
<glyph unicode="c" horiz-adv-x="1034" d="M111 504q0 134 38 238.5t106 171t159.5 101t201.5 34.5q115 0 222 -35q28 -9 37.5 -23t7.5 -39l-6 -59q-3 -37 -37 -37q-5 0 -33.5 8.5t-77.5 17.5t-106 9q-145 0 -233.5 -89.5t-88.5 -271.5q0 -189 95 -290t245 -101q55 0 105.5 11.5t83 23.5t42.5 12q31 0 31 -39 l-2 -61q0 -21 -10.5 -34t-40.5 -25q-107 -45 -234 -45q-236 0 -370.5 142.5t-134.5 379.5z" />
<glyph unicode="d" horiz-adv-x="1193" d="M111 489q0 256 146 408t402 152q106 0 191 -27v502q0 41 45 47l92 8q5 1 10 1q39 0 39 -44v-1485q0 -44 -43 -47l-82 -8q-6 -1 -11 -1q-36 0 -38 38l-2 88q-125 -144 -319 -144q-187 0 -308.5 134t-121.5 378zM303 514q0 -96 24 -171t64 -119t89 -66.5t104 -22.5 q151 0 266 125v602q-96 37 -197 37q-164 0 -257 -100t-93 -285z" />
<glyph unicode="e" horiz-adv-x="1114" d="M102 528q0 236 132.5 379.5t349.5 143.5q189 1 299 -129q101 -119 101 -325q0 -19 -1 -38q-6 -45 -49 -45h-647q-1 -181 103 -281t282 -100q73 0 136 13.5t100 26.5t46 13q33 0 33 -45l-2 -45q-3 -39 -37 -53q-135 -60 -299 -63h-10q-254 0 -394 146q-143 150 -143 402z M291 643l508 2q1 125 -65.5 197.5t-176.5 72.5q-104 0 -180.5 -72t-85.5 -200z" />
<glyph unicode="f" horiz-adv-x="712" d="M35 905v39q0 44 43 47l121 15v65q0 151 22 242q36 138 141 208t256 70q84 0 148 -14q37 -8 37 -49v-6l-6 -54q-3 -43 -39 -43q-1 0 -45 7.5t-86 7.5q-104 0 -164.5 -49t-71.5 -162q-6 -47 -6 -125v-98h229q23 0 36 -13.5t12 -36.5l-5 -53q-3 -45 -47 -45h-225v-811 q0 -47 -47 -47h-94q-45 0 -45 47v811h-117q-47 0 -47 47z" />
<glyph unicode="g" horiz-adv-x="1099" d="M27 -270q0 91 63 163t197 105q-70 52 -70 135q0 94 90 160q-96 46 -149.5 136.5t-53.5 221.5q0 172 111.5 287t288.5 115q134 0 235 -66h279q45 0 45 -40v-5l-4 -49q-3 -37 -45 -37h-160q53 -86 53 -205q0 -169 -109.5 -284t-295.5 -115q-61 0 -92 10q-27 -34 -27 -72 q0 -103 205 -108l108 -2q196 -6 279 -80q65 -59 65 -166q0 -47 -21 -98.5t-68 -104.5t-112.5 -95t-164 -68.5t-213.5 -26.5q-89 0 -163.5 18t-123.5 47.5t-83 68t-49 77.5t-15 78zM197 -244q0 -72 76 -127t221 -55q167 0 268.5 73t101.5 154q0 46 -30 72q-46 40 -185 45 l-102 2q-87 3 -156 23q-102 -27 -148 -77.5t-46 -109.5zM283 649q0 -135 64 -201.5t155 -66.5q107 0 167 74t60 196q0 135 -65.5 204t-157.5 69q-104 0 -163.5 -74t-59.5 -201z" />
<glyph unicode="h" horiz-adv-x="1163" d="M158 47v1477q0 41 43 47l94 8q5 1 10 1q39 0 39 -44v-471q0 -103 -8 -152q125 136 313 136q117 0 199.5 -50.5t122.5 -144.5q39 -89 39 -293v-514q0 -47 -45 -47h-95q-47 0 -47 47v490q0 55 -4 125q-8 106 -62.5 166.5t-160.5 60.5q-141 0 -252 -117v-725q0 -47 -47 -47 h-92q-47 0 -47 47z" />
<glyph unicode="i" horiz-adv-x="501" d="M125 1376q0 55 35.5 88t91.5 33t90.5 -34t34.5 -89t-36 -89t-91 -34q-58 0 -91.5 34t-33.5 91zM158 47v920q0 41 43 47l94 8h6q43 0 43 -43v-932q0 -47 -47 -47h-92q-47 0 -47 47z" />
<glyph unicode="j" horiz-adv-x="501" d="M-41 -358q127 134 163 229.5t36 294.5v801q0 41 43 47l94 8h6q43 0 43 -43v-834q0 -120 -13.5 -204.5t-48 -156.5t-83 -129t-129.5 -130q-17 -14 -32 -14q-18 0 -34 18l-45 47q-15 14 -15 31t15 35zM125 1376q0 55 35.5 88t91.5 33t90.5 -34t34.5 -89t-36 -89t-91 -34 q-58 0 -91.5 34t-33.5 91z" />
<glyph unicode="k" horiz-adv-x="1122" d="M158 47v1477q0 41 43 47l94 8q5 1 10 1q39 0 39 -44v-1489q0 -47 -47 -47h-92q-47 0 -47 47zM408 508q-12 17 -12 32q0 17 14 33l376 428q20 29 56 29h112q31 0 38 -17t-13 -40l-379 -422l410 -496q13 -15 13 -28q-1 -7 -3 -11q-8 -16 -37 -16h-129q-35 0 -55 29z" />
<glyph unicode="l" horiz-adv-x="501" d="M158 47v1477q0 41 43 47l94 8q5 1 10 1q39 0 39 -44v-1489q0 -47 -47 -47h-92q-47 0 -47 47z" />
<glyph unicode="m" horiz-adv-x="1820" d="M158 47v930q0 46 43 49l80 8h6q40 0 43 -41l2 -86q126 142 317 142q209 0 301 -166q136 166 353 166q118 0 200.5 -50.5t124.5 -144.5q39 -89 39 -293v-514q0 -47 -47 -47h-92q-47 0 -47 47v490q0 55 -4 125q-8 106 -63.5 166.5t-160.5 60.5q-152 0 -260 -129 q13 -66 13 -178v-535q0 -47 -48 -47h-92q-45 0 -45 47v508q0 78 -6 133q-10 90 -64.5 145.5t-154.5 55.5q-141 0 -252 -117v-725q0 -47 -47 -47h-92q-47 0 -47 47z" />
<glyph unicode="n" horiz-adv-x="1163" d="M158 47v930q0 46 43 49l80 8h6q40 0 43 -41l2 -86q126 142 317 142q117 0 199.5 -50.5t122.5 -144.5q39 -89 39 -293v-514q0 -47 -45 -47h-95q-47 0 -47 47v490q0 55 -4 125q-8 106 -62.5 166.5t-160.5 60.5q-141 0 -252 -117v-725q0 -47 -47 -47h-92q-47 0 -47 47z" />
<glyph unicode="o" horiz-adv-x="1218" d="M111 520q0 245 144 388t370 143q217 0 350 -138t133 -374q0 -132 -40 -239.5t-109.5 -176.5t-160 -106t-194.5 -37q-103 0 -192.5 37t-156.5 105t-105.5 170.5t-38.5 227.5zM299 530q0 -170 84.5 -284.5t220.5 -114.5h17q132 0 214.5 107t82.5 284q0 168 -82.5 272.5 t-227.5 104.5q-139 0 -224 -96.5t-85 -272.5z" />
<glyph unicode="p" horiz-adv-x="1193" d="M158 -465v1442q0 44 43 47l82 8q6 1 11 1q38 0 38 -40l2 -94q118 150 319 150q187 0 308.5 -133.5t121.5 -374.5q0 -260 -148 -412t-415 -152q-103 0 -176 23v-465q0 -47 -47 -47h-92q-47 0 -47 47zM344 164q90 -37 201 -37q161 0 253.5 100.5t92.5 286.5 q0 184 -82.5 280.5t-198.5 96.5q-151 0 -266 -125v-602z" />
<glyph unicode="q" horiz-adv-x="1193" d="M111 489q0 260 151 410t426 150q135 0 307 -31q41 -6 41 -51v-1432q0 -47 -45 -47h-94q-47 0 -47 47v457q0 81 8 129q-122 -144 -317 -144q-89 0 -166 33t-136.5 95t-93.5 161t-34 223zM303 512q0 -96 24.5 -170.5t65 -118.5t89.5 -66t102 -22q151 0 266 125v614 q-94 25 -184 25q-171 0 -267 -98.5t-96 -288.5z" />
<glyph unicode="r" horiz-adv-x="778" d="M158 47v930q0 22 11.5 34.5t31.5 12.5l80 8q5 1 10 1q39 0 39 -44l2 -100q27 50 58.5 83.5t66 49t65.5 21.5t68 6q45 0 86 -9q33 -10 33 -47v-6l-7 -76q-3 -39 -34 -39q-6 0 -34 4.5t-59 4.5q-145 0 -231 -136v-698q0 -47 -47 -47h-92q-47 0 -47 47z" />
<glyph unicode="s" horiz-adv-x="933" d="M119 141q-2 43 33 43q10 0 43.5 -13t90.5 -26.5t124 -13.5q99 0 151.5 47t52.5 107q0 22 -6 40.5t-22.5 40t-51 41t-85.5 37.5l-97 33q-231 80 -231 279q0 48 21 97t63.5 94t118 73.5t172.5 28.5q119 0 219 -35q30 -9 40.5 -22.5t8.5 -37.5l-6 -49q-3 -39 -37 -39 q-6 0 -77.5 17.5t-141.5 17.5q-98 0 -147.5 -41.5t-49.5 -93.5q0 -45 35.5 -81.5t128.5 -66.5l96 -32q90 -31 146.5 -82t76 -101t19.5 -106q0 -55 -21.5 -107.5t-65.5 -100.5t-123 -77.5t-181 -29.5q-118 0 -230 38q-40 15 -52.5 28t-12.5 38z" />
<glyph unicode="t" horiz-adv-x="774" d="M20 905v39q0 41 43 47l123 15l23 165q3 43 49 43l61 3q46 0 46 -48v-163h266q45 0 45 -44v-6l-4 -53q-3 -45 -47 -45h-260v-524q0 -197 178 -197q38 0 83.5 11.5t51.5 11.5q35 0 35 -37v-6l-2 -51q0 -43 -35 -54q-82 -30 -170 -30q-328 0 -328 333v543h-110q-48 0 -48 47 z" />
<glyph unicode="u" horiz-adv-x="1163" d="M154 469v508q0 41 43 47l94 8q5 1 10 1q39 0 39 -44v-497q0 -70 6 -125q6 -106 61 -167t160 -61q141 0 252 119v719q0 41 45 47l92 8q5 1 9 1q17 1 27 -9q14 -12 14 -35v-938q0 -44 -43 -47l-78 -8h-6q-43 0 -43 41l-5 84q-125 -141 -317 -141q-115 0 -197.5 50 t-123.5 144q-39 91 -39 295z" />
<glyph unicode="v" horiz-adv-x="1112" d="M68 977q-4 12 -4 21q0 10 4 18q10 14 36 14h103q39 0 53 -39l246 -665q9 -25 17.5 -49.5t14 -42t10 -31t7 -22t2.5 -9.5q0 14 49 154l254 667q15 37 53 37h93q26 0 36 -14q5 -7 4 -18q0 -9 -4 -21l-368 -938q-15 -34 -51 -37l-142 -4h-6q-36 0 -47 37z" />
<glyph unicode="w" horiz-adv-x="1736" d="M66 977q-3 10 -3 19q0 12 6 20q10 14 35 14h103q41 0 53 -39l199 -657l39 -146q0 16 47 146l219 657q12 39 53 39h111q42 0 51 -39l213 -649q30 -94 45 -154q0 17 45 150l205 653q12 39 51 39h90q26 0 36 -14q6 -8 6 -19q0 -9 -3 -20l-317 -936q-12 -36 -52 -39l-129 -4 h-5q-34 0 -46 37l-254 766l-254 -760q-15 -36 -53 -39l-133 -4h-5q-34 0 -46 37z" />
<glyph unicode="x" horiz-adv-x="1085" d="M72 1014q8 16 37 16h118q34 0 56 -31l258 -366l250 366q22 31 57 31h96q28 0 36 -16t-7 -39l-320 -459l340 -461q12 -16 12 -28q0 -6 -3 -11q-8 -16 -37 -16h-125q-34 0 -56 31l-258 362l-243 -362q-19 -31 -58 -31h-100q-28 0 -36 16t7 39l320 459l-336 461 q-11 15 -11 28q0 6 3 11z" />
<glyph unicode="y" horiz-adv-x="1105" d="M41 977q-3 11 -3 19q0 12 6 20q9 14 34 14h115q39 0 53 -39q187 -581 325 -923q87 156 168 432q61 215 103 487q1 20 14 31.5t33 11.5h94q44 0 44 -39q0 -5 -1 -10q-38 -257 -123 -535q-128 -411 -305 -634q-166 -213 -451 -334q-12 -4 -22 -4q-27 0 -39 30l-29 70 q-7 14 -7 25q0 23 32 34q254 113 369 269q-205 478 -410 1075z" />
<glyph unicode="z" horiz-adv-x="1036" d="M123 47v51q0 31 22 62l512 723h-467q-45 0 -45 47v53q0 47 45 47h648q47 0 47 -47v-53q0 -31 -21 -58l-510 -722h514q23 0 34 -14q8 -10 8 -24q0 -5 -1 -12l-6 -57q-6 -43 -49 -43h-684q-47 0 -47 47z" />
<glyph unicode="{" horiz-adv-x="960" d="M96 528l2 58q3 35 39 41q158 17 215.5 93.5t57.5 260.5v330q0 121 26.5 201.5t84.5 127t141 64.5t204 14q39 0 39 -39v-47q0 -36 -39 -39q-82 -2 -134 -15.5t-86.5 -44.5t-49 -81t-14.5 -127v-295q0 -90 -6 -152.5t-22.5 -118t-47 -91.5t-78 -63t-115.5 -42 q156 -25 212.5 -126t56.5 -322v-301q0 -87 10.5 -139t42 -90t86.5 -54t145 -20q39 -3 39 -39v-47q0 -38 -39 -41q-131 -5 -219.5 16.5t-140.5 73.5t-74 126.5t-22 182.5v299q0 84 -4.5 137t-20.5 104.5t-46 81t-80.5 50.5t-125.5 30q-37 9 -37 43z" />
<glyph unicode="|" horiz-adv-x="425" d="M145 -473v2011q0 39 39 39h58q39 0 39 -39v-2011q0 -39 -39 -39h-58q-39 0 -39 39z" />
<glyph unicode="}" horiz-adv-x="960" d="M55 -584l2 47q0 38 39 41q159 5 221 61.5t62 205.5v321q0 90 6 152.5t22.5 118.5t46.5 92t78 62.5t117 41.5q-156 25 -213 127t-57 322v274q0 87 -11 140t-42.5 91t-85.5 54t-144 20q-39 0 -39 39v47q0 38 39 41q130 5 218.5 -16.5t140.5 -73.5t74 -126.5t22 -182.5v-275 q0 -60 2 -100.5t8.5 -84t18.5 -71.5t32.5 -55t50 -44t70 -29.5t94.5 -18.5q38 -10 35 -43l-2 -57q0 -35 -37 -41q-157 -19 -214.5 -95.5t-57.5 -259.5v-354q0 -122 -26.5 -203t-85 -127.5t-141.5 -64.5t-204 -15q-39 0 -39 39z" />
<glyph unicode="~" horiz-adv-x="1112" d="M111 492q30 85 66 142.5t74 84.5t71 37t71 10q61 0 176 -43l39 -14q67 -27 111 -27q96 0 164 156q17 35 51 24l53 -20q35 -15 23 -54q-24 -68 -53 -119t-56.5 -80t-59.5 -46.5t-58 -23t-56 -5.5q-61 0 -176 43l-39 14q-77 27 -113 27q-92 0 -161 -156q-17 -35 -52 -24 l-53 20q-34 15 -22 54z" />
<glyph unicode="&#xa1;" horiz-adv-x="538" d="M111 952q0 53 35.5 88t89.5 35q53 0 86.5 -36.5t33.5 -92.5q0 -52 -34.5 -87.5t-90.5 -35.5q-53 0 -86.5 36.5t-33.5 92.5zM131 -358q4 463 16 835q4 87 14 111t40 24h69q30 0 40 -24t14 -111q5 -166 9 -374.5t5 -334.5l2 -126q0 -39 -39 -39h-131q-39 0 -39 39z" />
<glyph unicode="&#xa2;" d="M162 506q0 247 125 387t329 158l7 153q0 31 30 31l49 -2q29 -3 29 -31l-6 -151q101 -4 190 -39q37 -10 31 -49l-6 -70q-5 -37 -29 -37q-4 0 -29 8.5t-69 18t-94 12.5l-27 -756q62 -1 118.5 11.5t89.5 25t38 12.5q32 0 29 -36l-2 -68q0 -36 -31 -49q-118 -53 -248 -53 l-6 -152q0 -29 -29 -29l-51 2q-17 1 -23 9t-6 24l7 152q-195 28 -305.5 166t-110.5 352zM354 532q0 -151 62 -247t168 -129l26 735q-119 -18 -187.5 -108t-68.5 -251z" />
<glyph unicode="&#xa3;" d="M76 88q0 33 28 53q112 61 160.5 129.5t48.5 165.5q0 79 -28 205h-164q-31 0 -31 29v57q0 29 31 29h137q-22 125 -22 215q0 106 28 191t76 142.5t116 96t144.5 55.5t163.5 17q105 0 221 -29q41 -9 35 -49l-10 -72q-5 -37 -37 -37q-5 0 -34.5 6t-79 12.5t-101.5 6.5 q-64 0 -119 -17.5t-103 -55t-76 -107t-28 -164.5q0 -72 27 -211h409q31 0 31 -29v-57q0 -29 -31 -29h-385q25 -121 25 -197q0 -98 -36 -165.5t-107 -122.5q66 12 167 12h510q42 0 39 -45l-6 -82q-6 -41 -45 -41h-776q-55 0 -91.5 -3t-45.5 -3q-15 0 -25.5 10.5t-11.5 28.5z " />
<glyph unicode="&#xa4;" horiz-adv-x="1040" d="M78 301q-24 25 0 49l129 127q-72 97 -72 223q0 127 72 220l-129 131q-23 23 0 49l37 37q23 23 47 0l131 -131q95 73 221 73q125 0 223 -73l129 131q24 25 49 0l37 -37q23 -26 0 -49l-129 -131q72 -102 72 -220q0 -122 -72 -223l129 -127q26 -23 0 -49l-37 -37 q-25 -24 -49 0l-129 127q-98 -72 -223 -72q-123 0 -221 72l-131 -127q-24 -24 -47 0zM256 700q0 -107 76 -182.5t182 -75.5q107 0 182.5 75.5t75.5 182.5q0 106 -75.5 182t-182.5 76q-106 0 -182 -76t-76 -182z" />
<glyph unicode="&#xa5;" d="M28.5 1440q7.5 14 32.5 14h138q32 0 51 -31l368 -596l357 596q19 31 51 31h115q25 0 32.5 -14t-4.5 -37l-428 -696h338q29 0 29 -29v-47q0 -29 -29 -29h-377v-209h377q29 0 29 -28v-50q0 -28 -29 -28h-377v-244q0 -43 -40 -43h-115q-41 0 -41 43v244h-371q-29 0 -29 28 v50q0 28 29 28h371v209h-371q-29 0 -29 29v49q0 27 29 27h330l-432 696q-12 23 -4.5 37z" />
<glyph unicode="&#xa6;" horiz-adv-x="425" d="M145 348q0 39 39 39h58q39 0 39 -39v-821q0 -39 -39 -39h-58q-39 0 -39 39v821zM145 717v821q0 39 39 39h58q39 0 39 -39v-821q0 -39 -39 -39h-58q-39 0 -39 39z" />
<glyph unicode="&#xa7;" horiz-adv-x="1271" d="M113 944q0 134 84 249t221 187q82 44 184.5 66t192.5 22q112 0 225 -30q39 -9 33 -49l-6 -78q-5 -35 -35 -35q-2 0 -70.5 15.5t-138.5 15.5q-71 0 -119 -25q-53 -26 -81 -69.5t-28 -94.5q0 -59 37 -128.5t160 -209.5l90 -102q178 -207 241.5 -329t63.5 -234 q0 -136 -84 -251.5t-221 -187.5q-83 -43 -185.5 -65.5t-191.5 -22.5q-108 0 -225 31q-39 9 -33 51l9 76q2 35 30 35q1 0 73.5 -15.5t137.5 -15.5q71 0 119 25q53 27 81 71t28 95q0 56 -37.5 126t-159.5 212l-90 100q-179 207 -242 328.5t-63 236.5zM276 971q0 -87 54 -191 t200 -272l88 -102q147 -169 197.5 -259t50.5 -159q0 -105 -71 -176q92 34 150.5 110t58.5 164q0 86 -54 190.5t-200 274.5l-88 100q-147 169 -197.5 259t-50.5 159q0 105 71 176q-92 -34 -150.5 -110t-58.5 -164z" />
<glyph unicode="&#xa8;" horiz-adv-x="831" d="M102 1391q0 51 30 82.5t83 31.5q52 0 80.5 -32.5t28.5 -83.5q0 -57 -31 -88t-82 -31q-49 0 -79 34t-30 87zM506 1391q0 50 31 82t84 32q52 0 80 -32t28 -84q0 -56 -32 -87.5t-81 -31.5q-50 0 -80 34t-30 87z" />
<glyph unicode="&#xa9;" horiz-adv-x="1818" d="M119 721q0 177 64 323t174 241.5t255.5 147.5t311.5 52q225 0 400.5 -92t275.5 -265.5t100 -400.5q0 -177 -63.5 -323t-173 -241.5t-255 -147.5t-311.5 -52q-225 0 -401 92t-276.5 265.5t-100.5 400.5zM264 741q0 -192 74.5 -339t222 -231.5t350.5 -84.5q290 0 467.5 166 t177.5 455q0 292 -172 473.5t-473 181.5q-292 0 -469.5 -166t-177.5 -455zM483 729q0 97 35.5 175.5t97 128.5t141 77t169.5 27q112 0 211 -35q29 -6 26 -39l-4 -57q-3 -29 -22 -29q-5 0 -69.5 16.5t-139.5 16.5q-123 0 -202 -68.5t-79 -202.5q0 -137 77 -219t222 -82 q54 0 105.5 13t83.5 25.5t39 12.5q26 0 24 -30l-6 -58q-3 -27 -29 -39q-112 -51 -229 -51q-178 0 -287 72q-77 53 -120.5 143t-43.5 203z" />
<glyph unicode="&#xaa;" horiz-adv-x="712" d="M59 985q0 31 9 59.5t34.5 57.5t66 50t108 34.5t155.5 13.5v27q0 68 -28.5 101.5t-106.5 33.5q-47 0 -91 -11t-71.5 -22.5t-32.5 -11.5q-14 0 -16 16l-6 60q-3 16 14 26q109 56 221 56q244 0 244 -226v-233q0 -51 12.5 -74t59.5 -29q9 -2 15 -8.5t5 -15.5l-4 -45 q-4 -22 -22 -25q-16 -2 -47 -2q-98 0 -127 78q-80 -80 -195 -80q-88 0 -142.5 47t-54.5 123zM184 1001q0 -37 27.5 -59t79.5 -22q76 0 141 59v127q-136 4 -192 -27.5t-56 -77.5z" />
<glyph unicode="&#xab;" horiz-adv-x="1128" d="M80 506q-24 27 0 53l364 424q22 28 54 6l63 -51q28 -25 4 -55l-297 -342l307 -363q26 -33 -6 -55l-69 -57q-32 -25 -56 6zM584 506q-21 26 0 53l321 375q26 33 56 6l51 -41q30 -26 4 -55l-264 -305l274 -324q24 -30 -6 -53l-57 -47q-32 -25 -56 6z" />
<glyph unicode="&#xac;" horiz-adv-x="1122" d="M74 668v67q0 39 39 39h897q39 0 39 -39v-325q0 -39 -39 -39h-64q-39 0 -39 39v219h-794q-39 0 -39 39z" />
<glyph unicode="&#xad;" horiz-adv-x="641" d="M47 526v74q0 39 39 39h469q39 0 39 -39v-74q0 -39 -39 -39h-469q-39 0 -39 39z" />
<glyph unicode="&#xae;" horiz-adv-x="1566" d="M119 840q0 199 91.5 347.5t243.5 223t341 74.5q290 0 471.5 -176t181.5 -463q0 -200 -91 -349t-242.5 -223.5t-340.5 -74.5q-291 0 -473 176.5t-182 464.5zM242 858q0 -161 60.5 -285t183.5 -196t294 -72q249 0 397 137.5t148 384.5q0 161 -60.5 284.5t-183.5 196 t-295 72.5q-247 0 -395.5 -138t-148.5 -384zM535 545v635q0 34 34 34h136q134 0 214 -53.5t80 -161.5q0 -59 -32 -108.5t-90 -75.5l114 -133q37 -40 60 -58.5t47 -27.5q22 -8 27.5 -20t-1.5 -35q-5 -21 -15.5 -28t-37.5 -7q-61 0 -104 28t-107 111l-104 133h-97v-233 q0 -35 -34 -35h-56q-34 0 -34 35zM659 866h78q60 0 97.5 33t37.5 92q0 133 -188 133h-25v-258z" />
<glyph unicode="&#xaf;" horiz-adv-x="718" d="M102 1348v63q0 39 39 39h437q38 0 38 -39v-63q0 -37 -38 -37h-437q-39 0 -39 37z" />
<glyph unicode="&#xb0;" horiz-adv-x="849" d="M59 1106q0 164 108.5 266.5t266.5 102.5q153 0 253.5 -102t100.5 -267q0 -163 -108.5 -265t-265.5 -102q-155 0 -255 101t-100 266zM217 1108q0 -101 61 -164t146 -63q84 0 145.5 61.5t61.5 161.5q0 102 -61.5 164.5t-145.5 62.5q-86 0 -146.5 -60.5t-60.5 -162.5z" />
<glyph unicode="&#xb1;" horiz-adv-x="1122" d="M74 45v68q0 39 39 39h897q39 0 39 -39v-68q0 -39 -39 -39h-897q-39 0 -39 39zM74 797v67q0 39 39 39h374v338q0 39 39 39h68q39 0 39 -39v-338h377q39 0 39 -39v-67q0 -39 -39 -39h-377v-338q0 -39 -39 -39h-68q-39 0 -39 39v338h-374q-39 0 -39 39z" />
<glyph unicode="&#xb4;" horiz-adv-x="702" d="M115 1278q-12 36 18 51l383 266q39 22 51 -18l23 -82q10 -33 -21 -49l-385 -246q-38 -18 -51 21z" />
<glyph unicode="&#xb6;" horiz-adv-x="1390" d="M184 981q0 158 76.5 273.5t216.5 162.5q112 37 309 37h68q41 0 41 -43v-1225q0 -177 -31.5 -270.5t-93.5 -155.5q49 13 88 33t76.5 58.5t62 92.5t39.5 138t15 192v1137q0 43 41 43h84q43 0 43 -43v-1106q0 -198 -46 -340t-136.5 -226.5t-212.5 -123.5t-285 -39 q-123 0 -252 35q-31 8 -37 47l-8 80q-1 20 7.5 29.5t22.5 9.5q4 0 76 -17.5t129 -17.5q250 0 250 436v369q-171 -4 -295 47q-114 43 -181 146.5t-67 240.5z" />
<glyph unicode="&#xb7;" horiz-adv-x="487" d="M119 623q0 53 35 89t92 36q55 0 89 -38t34 -94q0 -54 -36 -89t-91 -35q-54 0 -88.5 37t-34.5 94z" />
<glyph unicode="&#xb8;" horiz-adv-x="583" d="M102 -416q0 27 23 27q3 0 37 -8.5t69 -8.5q51 0 78 23.5t27 58.5q0 44 -41 77t-121 48q-34 6 -44.5 14t-6.5 25l8 37q5 27 47 27q65 0 133 -25t119 -78t51 -120q0 -85 -63 -144t-170 -59q-62 0 -115 20q-31 8 -31 37v49z" />
<glyph unicode="&#xba;" horiz-adv-x="792" d="M88 1149q0 152 92 239t238 87q140 0 224.5 -85t84.5 -231q0 -160 -92.5 -251t-231.5 -91q-136 0 -225.5 89.5t-89.5 242.5zM221 1155q0 -99 49.5 -163t132.5 -64h11q80 0 130 60.5t50 162.5q0 96 -49.5 154.5t-138.5 58.5q-84 0 -134.5 -54t-50.5 -155z" />
<glyph unicode="&#xbb;" horiz-adv-x="1128" d="M102 842q-23 29 7 53l57 47q31 24 55 -6l324 -385q21 -27 0 -53l-322 -375q-25 -32 -55 -6l-51 41q-30 26 -4 55l264 305zM553 879q-26 33 6 55l70 57q31 24 55 -6l365 -434q24 -27 0 -53l-365 -424q-22 -28 -53 -6l-64 51q-28 25 -4 55l297 342z" />
<glyph unicode="&#xbc;" horiz-adv-x="1720" d="M82 1434q-3 42 39 45l198 22h78q43 0 43 -43v-803q0 -41 -43 -41h-53q-41 0 -41 41v721l-174 -12q-42 -6 -45 37zM401 27l699 1499q15 38 51 22l33 -16q31 -15 14 -53l-696 -1502q-15 -35 -51 -20l-35 16q-33 13 -15 54zM911 252v37q0 26 17 49l375 520q18 27 49 27h71 q41 0 41 -43v-514h88q42 0 39 -43l-4 -35q-3 -39 -35 -39h-88v-170q0 -41 -41 -41h-53q-41 0 -41 41v170h-377q-41 0 -41 41zM1059 328h270v264l4 125z" />
<glyph unicode="&#xbd;" horiz-adv-x="1720" d="M82 1434q-3 42 39 45l198 22h78q43 0 43 -43v-803q0 -41 -43 -41h-53q-41 0 -41 41v721l-174 -12q-42 -6 -45 37zM365 27l698 1499q15 38 51 22l33 -16q31 -15 14 -53l-696 -1502q-15 -35 -51 -20l-35 16q-32 13 -14 54zM1053 41v33q0 30 20 53l148 152q131 137 178 213 t47 139q0 69 -47 111t-125 42q-48 0 -90.5 -13t-68 -25.5t-32.5 -12.5q-25 0 -28 35l-2 29q-3 23 6.5 36t38.5 25q92 45 196 45q132 0 214.5 -76t82.5 -186q0 -90 -56 -187t-206 -241l-92 -90h367q44 0 38 -45l-2 -39q-3 -39 -43 -39h-503q-41 0 -41 41z" />
<glyph unicode="&#xbe;" horiz-adv-x="1720" d="M88 707v34q0 37 25 37q10 0 42.5 -16t83 -31.5t103.5 -15.5q86 0 132 36.5t46 90.5q0 126 -231 164q-41 6 -41 45v28q0 37 41 43q118 22 164.5 64.5t46.5 91.5q0 52 -40 87.5t-120 35.5q-44 0 -86 -12.5t-70 -25.5t-37 -13q-26 0 -28 30l-4 31q-3 36 30 51q106 56 215 56 q133 0 207 -66.5t74 -161.5q0 -71 -47.5 -130.5t-149.5 -86.5q116 -28 168 -91t52 -134q0 -99 -82 -175.5t-238 -76.5q-117 0 -227 61q-29 12 -29 50zM469 27l698 1499q15 38 52 22l32 -16q32 -16 15 -53l-697 -1502q-15 -35 -51 -20l-35 16q-32 13 -14 54zM934 252v37 q0 28 16 49l375 520q18 27 49 27h72q41 0 41 -43v-514h88q42 0 39 -43l-4 -35q-3 -39 -35 -39h-88v-170q0 -41 -41 -41h-53q-41 0 -41 41v170h-377q-41 0 -41 41zM1081 328h271v264l4 125z" />
<glyph unicode="&#xbf;" horiz-adv-x="862" d="M96 -113q0 87 42 160t136 146l48 36q70 56 95 100t25 93q0 34 -20.5 81t-20.5 52q0 23 31 33l78 24q33 10 59 -30q66 -100 66 -193q0 -65 -36.5 -129.5t-133.5 -140.5l-47 -37q-68 -53 -95.5 -95.5t-27.5 -90.5q0 -69 61 -116.5t162 -47.5q55 0 119.5 16t69.5 16 q25 0 30 -34l11 -70q3 -39 -48 -53q-96 -35 -219 -35q-179 0 -282 94t-103 221zM371 942q0 53 35 88t90 35q53 0 86.5 -36.5t33.5 -92.5q0 -52 -34 -87.5t-90 -35.5q-54 0 -87.5 36.5t-33.5 92.5z" />
<glyph unicode="&#xc0;" horiz-adv-x="1501" d="M119 57l489 1354q14 38 56 41l135 4q41 3 57 -39l522 -1360q9 -27 -1.5 -42t-39.5 -15h-112q-43 0 -58 41l-137 367h-592l-127 -367q-12 -41 -55 -41h-96q-28 0 -39 15.5t-2 41.5zM469 1833l8 76q9 45 51 28l402 -196q35 -15 26 -53l-10 -58q-3 -22 -17 -29.5t-34 1.5 l-397 178q-35 15 -29 53zM492 565h481l-189 504q-53 142 -61 176q-1 -1 -6.5 -18.5t-20 -63.5t-30.5 -96z" />
<glyph unicode="&#xc1;" horiz-adv-x="1501" d="M119 57l489 1354q14 38 56 41l135 4q41 3 57 -39l522 -1360q9 -27 -1.5 -42t-39.5 -15h-112q-43 0 -58 41l-137 367h-592l-127 -367q-12 -41 -55 -41h-96q-28 0 -39 15.5t-2 41.5zM492 565h481l-189 504q-53 142 -61 176q-1 -1 -6.5 -18.5t-20 -63.5t-30.5 -96zM528 1688 q-9 37 27 53l399 196q46 19 52 -28l10 -78q6 -36 -31 -51l-395 -178q-43 -19 -53 28z" />
<glyph unicode="&#xc2;" horiz-adv-x="1501" d="M119 57l489 1354q14 38 56 41l135 4q41 3 57 -39l522 -1360q9 -27 -1.5 -42t-39.5 -15h-112q-43 0 -58 41l-137 367h-592l-127 -367q-12 -41 -55 -41h-96q-28 0 -39 15.5t-2 41.5zM395 1642q-29 37 4 60l320 248q29 21 59 0l305 -240q33 -27 4 -59l-53 -49 q-27 -27 -59 -5l-238 193l-245 -191q-32 -26 -60 5zM492 565h481l-189 504q-53 142 -61 176q-1 -1 -6.5 -18.5t-20 -63.5t-30.5 -96z" />
<glyph unicode="&#xc3;" horiz-adv-x="1501" d="M119 57l489 1354q14 38 56 41l135 4q41 3 57 -39l522 -1360q9 -27 -1.5 -42t-39.5 -15h-112q-43 0 -58 41l-137 367h-592l-127 -367q-12 -41 -55 -41h-96q-28 0 -39 15.5t-2 41.5zM381 1669q24 62 52.5 104.5t60 63.5t59.5 29t61 8q48 0 142 -35l26 -10q56 -21 84 -21 q19 0 32 3t39 26.5t48 67.5q24 35 51 28l45 -16q36 -8 19 -53q-45 -118 -103 -160.5t-129 -42.5q-47 0 -141 35l-29 10q-54 20 -82 20q-18 0 -31.5 -3.5t-39 -27t-47.5 -67.5q-13 -19 -24.5 -25.5t-27.5 -0.5l-45 14q-36 11 -20 53zM492 565h481l-189 504q-53 142 -61 176 q-1 -1 -6.5 -18.5t-20 -63.5t-30.5 -96z" />
<glyph unicode="&#xc4;" horiz-adv-x="1501" d="M119 57l489 1354q14 38 56 41l135 4q41 3 57 -39l522 -1360q9 -27 -1.5 -42t-39.5 -15h-112q-43 0 -58 41l-137 367h-592l-127 -367q-12 -41 -55 -41h-96q-28 0 -39 15.5t-2 41.5zM420 1759q0 49 29.5 80t82.5 31q52 0 80.5 -32t28.5 -81q0 -55 -31.5 -87t-81.5 -32 q-48 0 -78 35t-30 86zM492 565h481l-189 504q-53 142 -61 176q-1 -1 -6.5 -18.5t-20 -63.5t-30.5 -96zM838 1759q0 49 29.5 80t82.5 31q52 0 80.5 -32t28.5 -81q0 -55 -31.5 -87t-81.5 -32q-48 0 -78 35t-30 86z" />
<glyph unicode="&#xc5;" horiz-adv-x="1501" d="M119 57l489 1354q14 38 56 41l135 4q41 3 57 -39l522 -1360q9 -27 -1.5 -42t-39.5 -15h-112q-43 0 -58 41l-137 367h-592l-127 -367q-12 -41 -55 -41h-96q-28 0 -39 15.5t-2 41.5zM481 1741q0 109 75.5 177.5t191.5 68.5q112 0 181.5 -64.5t69.5 -175.5 q0 -108 -75.5 -176t-190.5 -68q-112 0 -182 64.5t-70 173.5zM492 565h481l-189 504q-53 142 -61 176q-1 -1 -6.5 -18.5t-20 -63.5t-30.5 -96zM623 1749q0 -60 31.5 -99.5t82.5 -39.5q54 0 86.5 33.5t32.5 95.5q0 60 -32 99.5t-85 39.5q-51 0 -83.5 -34t-32.5 -95z" />
<glyph unicode="&#xc6;" horiz-adv-x="1970" d="M35 16.5q-10 16.5 4 42.5l807 1360q20 35 59 35h783q49 0 49 -49v-70q0 -49 -49 -49h-533v-467h492q49 0 49 -49v-63q0 -50 -49 -50h-492v-489h580q49 0 49 -51l-8 -70q-3 -47 -52 -47h-716q-50 0 -50 49v359h-497l-217 -373q-20 -35 -60 -35h-110q-29 0 -39 16.5z M549 565h409v723q-31 -69 -100 -190z" />
<glyph unicode="&#xc7;" horiz-adv-x="1601" d="M133 723q0 210 77.5 362t205.5 244q197 146 514 146q206 0 403 -72q42 -12 39 -57l-8 -74q-5 -41 -41 -41q-8 0 -62 18t-146 36t-193 18q-249 0 -392 -117q-192 -154 -192 -451q0 -120 40 -225.5t114.5 -184.5t190.5 -125t259 -46q108 0 210 23t162.5 46t69.5 23 q36 0 33 -45l-6 -74q-3 -45 -41 -55q-215 -92 -442 -92q-301 0 -496 133q-140 96 -219.5 256.5t-79.5 353.5zM633 -463l2 53q0 33 22 33q3 0 37 -10t66 -10q39 0 63.5 20t24.5 51q0 38 -39.5 70t-116.5 45q-32 5 -43.5 14t-7.5 29l12 49q3 14 13.5 20.5t35.5 6.5 q43 0 91.5 -13t96 -38.5t78.5 -71t31 -102.5q0 -87 -63 -149t-168 -62q-54 0 -106 22q-32 13 -29 43z" />
<glyph unicode="&#xc8;" horiz-adv-x="1220" d="M209 49v1356q0 49 49 49h680q49 0 49 -49v-70q0 -49 -49 -49h-532v-467h491q49 0 49 -49v-63q0 -50 -49 -50h-491v-489h577q52 0 49 -51l-6 -70q-3 -47 -51 -47h-717q-49 0 -49 49zM332 1833l8 76q9 45 51 28l402 -196q35 -15 26 -53l-10 -58q-3 -22 -17 -29.5t-34 1.5 l-398 178q-34 15 -28 53z" />
<glyph unicode="&#xc9;" horiz-adv-x="1220" d="M209 49v1356q0 49 49 49h680q49 0 49 -49v-70q0 -49 -49 -49h-532v-467h491q49 0 49 -49v-63q0 -50 -49 -50h-491v-489h577q52 0 49 -51l-6 -70q-3 -47 -51 -47h-717q-49 0 -49 49zM393 1688q-9 37 27 53l399 196q45 19 51 -28l11 -78q6 -36 -31 -51l-395 -178 q-20 -9 -34.5 -1.5t-19.5 29.5z" />
<glyph unicode="&#xca;" horiz-adv-x="1220" d="M209 49v1356q0 49 49 49h680q49 0 49 -49v-70q0 -49 -49 -49h-532v-467h491q49 0 49 -49v-63q0 -50 -49 -50h-491v-489h577q52 0 49 -51l-6 -70q-3 -47 -51 -47h-717q-49 0 -49 49zM266 1642q-29 37 4 60l320 248q30 21 59 0l305 -240q33 -27 4 -59l-53 -49 q-27 -27 -59 -5l-238 193l-246 -191q-32 -25 -59 5z" />
<glyph unicode="&#xcb;" horiz-adv-x="1220" d="M209 49v1356q0 49 49 49h680q49 0 49 -49v-70q0 -49 -49 -49h-532v-467h491q49 0 49 -49v-63q0 -50 -49 -50h-491v-489h577q52 0 49 -51l-6 -70q-3 -47 -51 -47h-717q-49 0 -49 49zM291 1759q0 49 29.5 80t82.5 31q52 0 80.5 -32t28.5 -81q0 -55 -31.5 -87t-81.5 -32 q-48 0 -78 35t-30 86zM709 1759q0 49 29.5 80t82.5 31q52 0 80.5 -32t28.5 -81q0 -55 -31.5 -87t-81.5 -32q-48 0 -78 35t-30 86z" />
<glyph unicode="&#xcc;" horiz-adv-x="614" d="M51 1833l8 76q9 46 52 28l401 -196q36 -16 27 -53l-11 -58q-3 -22 -17 -29.5t-34 1.5l-397 178q-35 15 -29 53zM209 49v1356q0 49 49 49h98q50 0 50 -49v-1356q0 -49 -50 -49h-98q-49 0 -49 49z" />
<glyph unicode="&#xcd;" horiz-adv-x="614" d="M80 1688q-9 38 26 53l400 196q45 19 51 -28l10 -78q6 -37 -30 -51l-396 -178q-43 -19 -53 28zM209 49v1356q0 49 49 49h98q50 0 50 -49v-1356q0 -49 -50 -49h-98q-49 0 -49 49z" />
<glyph unicode="&#xce;" horiz-adv-x="614" d="M-37 1642q-29 37 4 60l320 248q30 21 59 0l305 -240q33 -27 4 -59l-53 -49q-27 -27 -59 -5l-238 193l-246 -191q-32 -25 -59 5zM209 49v1356q0 49 49 49h98q50 0 50 -49v-1356q0 -49 -50 -49h-98q-49 0 -49 49z" />
<glyph unicode="&#xcf;" horiz-adv-x="614" d="M-12 1759q0 49 29.5 80t82.5 31q52 0 80.5 -32t28.5 -81q0 -55 -31.5 -87t-81.5 -32q-48 0 -78 35t-30 86zM209 49v1356q0 49 49 49h98q50 0 50 -49v-1356q0 -49 -50 -49h-98q-49 0 -49 49zM406 1759q0 49 29.5 80t82.5 31q52 0 80.5 -32t28.5 -81q0 -55 -31.5 -87 t-81.5 -32q-48 0 -78 35t-30 86z" />
<glyph unicode="&#xd0;" horiz-adv-x="1665" d="M14 721v41q0 49 49 49h146v594q0 49 49 49q125 2 342 2q250 0 438 -54t310 -190q178 -187 178 -460q0 -293 -183 -496q-105 -127 -264 -193.5t-397 -66.5q-268 0 -424 4q-49 0 -49 49v623h-146q-49 0 -49 49zM406 168q111 -4 282 -4q190 0 314.5 53.5t201.5 159.5 q117 139 117 354q0 221 -133 365q-95 104 -235 148t-359 44q-120 0 -188 -2v-475h356q49 0 49 -49v-41q0 -49 -49 -49h-356v-504z" />
<glyph unicode="&#xd1;" horiz-adv-x="1662" d="M209 49v1356q0 49 49 49h127q34 0 59 -31l828 -1128q-4 47 -4 203v907q0 49 49 49h88q49 0 49 -49v-1356q0 -49 -49 -49h-125q-34 0 -59 31l-832 1138q6 -71 6 -233v-887q0 -49 -51 -49h-86q-49 0 -49 49zM477 1669q24 62 53 105t60.5 63.5t59.5 28.5t61 8q47 0 141 -35 l27 -10q56 -21 84 -21q13 0 23 2t26.5 10t34 29.5t34.5 55.5q24 35 52 28l45 -16q35 -8 18 -53q-24 -62 -52.5 -104.5t-59.5 -63t-58.5 -28t-60.5 -7.5q-48 0 -142 35l-28 10q-54 20 -82 20q-18 0 -32 -3.5t-39.5 -27t-47.5 -67.5q-13 -19 -24 -25.5t-27 -0.5l-45 14 q-37 11 -21 53z" />
<glyph unicode="&#xd2;" horiz-adv-x="1792" d="M133 743q0 190 77 338.5t210 243.5q202 152 483 152q349 0 555 -209q201 -204 201 -520q0 -202 -82 -367t-227 -268q-188 -136 -473 -136q-135 0 -260.5 45t-219.5 121q-127 104 -195.5 260t-68.5 340zM340 764q0 -148 48.5 -271t139.5 -206q65 -62 158.5 -99.5 t190.5 -37.5h16q206 0 340 98q105 77 162 201.5t57 279.5q0 257 -158 418q-152 158 -411 158q-203 0 -348 -117q-90 -67 -142.5 -179t-52.5 -245zM612 1833l9 76q9 45 51 28l401 -196q36 -16 27 -53l-10 -58q-3 -22 -17.5 -29.5t-34.5 1.5l-397 178q-35 15 -29 53z" />
<glyph unicode="&#xd3;" horiz-adv-x="1792" d="M133 743q0 190 77 338.5t210 243.5q202 152 483 152q349 0 555 -209q201 -204 201 -520q0 -202 -82 -367t-227 -268q-188 -136 -473 -136q-135 0 -260.5 45t-219.5 121q-127 104 -195.5 260t-68.5 340zM340 764q0 -148 48.5 -271t139.5 -206q65 -62 158.5 -99.5 t190.5 -37.5h16q206 0 340 98q105 77 162 201.5t57 279.5q0 257 -158 418q-152 158 -411 158q-203 0 -348 -117q-90 -67 -142.5 -179t-52.5 -245zM700 1688q-9 37 27 53l399 196q46 19 52 -28l10 -78q6 -36 -31 -51l-395 -178q-43 -19 -53 28z" />
<glyph unicode="&#xd4;" horiz-adv-x="1792" d="M133 743q0 190 77 338.5t210 243.5q202 152 483 152q349 0 555 -209q201 -204 201 -520q0 -202 -82 -367t-227 -268q-188 -136 -473 -136q-135 0 -260.5 45t-219.5 121q-127 104 -195.5 260t-68.5 340zM340 764q0 -148 48.5 -271t139.5 -206q65 -62 158.5 -99.5 t190.5 -37.5h16q206 0 340 98q105 77 162 201.5t57 279.5q0 257 -158 418q-152 158 -411 158q-203 0 -348 -117q-90 -67 -142.5 -179t-52.5 -245zM553 1642q-29 37 4 60l320 248q29 21 59 0l305 -240q33 -27 4 -59l-53 -49q-27 -27 -59 -5l-238 193l-246 -191q-32 -25 -59 5 z" />
<glyph unicode="&#xd5;" horiz-adv-x="1792" d="M133 743q0 190 77 338.5t210 243.5q202 152 483 152q349 0 555 -209q201 -204 201 -520q0 -202 -82 -367t-227 -268q-188 -136 -473 -136q-135 0 -260.5 45t-219.5 121q-127 104 -195.5 260t-68.5 340zM340 764q0 -148 48.5 -271t139.5 -206q65 -62 158.5 -99.5 t190.5 -37.5h16q206 0 340 98q105 77 162 201.5t57 279.5q0 257 -158 418q-152 158 -411 158q-203 0 -348 -117q-90 -67 -142.5 -179t-52.5 -245zM539 1669q24 62 52.5 104.5t60 63.5t59.5 29t61 8q47 0 141 -35l27 -10q56 -21 84 -21q19 0 32 3t39 26.5t48 67.5 q24 35 51 28l45 -16q35 -8 18 -53q-24 -62 -52.5 -104.5t-59.5 -63t-58.5 -28t-60.5 -7.5q-47 0 -141 35l-29 10q-54 20 -82 20q-18 0 -32 -3.5t-39.5 -27t-47.5 -67.5q-13 -19 -24 -25.5t-27 -0.5l-45 14q-36 11 -20 53z" />
<glyph unicode="&#xd6;" horiz-adv-x="1792" d="M133 743q0 190 77 338.5t210 243.5q202 152 483 152q349 0 555 -209q201 -204 201 -520q0 -202 -82 -367t-227 -268q-188 -136 -473 -136q-135 0 -260.5 45t-219.5 121q-127 104 -195.5 260t-68.5 340zM340 764q0 -148 48.5 -271t139.5 -206q65 -62 158.5 -99.5 t190.5 -37.5h16q206 0 340 98q105 77 162 201.5t57 279.5q0 257 -158 418q-152 158 -411 158q-203 0 -348 -117q-90 -67 -142.5 -179t-52.5 -245zM578 1759q0 49 29.5 80t82.5 31q52 0 80.5 -32t28.5 -81q0 -55 -31.5 -87t-81.5 -32q-48 0 -78 35t-30 86zM995 1759 q0 49 30 80t83 31q52 0 80.5 -32t28.5 -81q0 -55 -31.5 -87t-81.5 -32q-48 0 -78.5 35t-30.5 86z" />
<glyph unicode="&#xd7;" horiz-adv-x="1122" d="M131 231q-25 28 0 56l328 327l-328 328q-27 28 0 55l47 47q28 28 55 0l326 -329l330 329q27 28 55 0l47 -47q27 -27 0 -55l-329 -328l329 -327q28 -31 0 -56l-47 -47q-28 -28 -55 0l-330 330l-326 -330q-27 -28 -55 0z" />
<glyph unicode="&#xd8;" horiz-adv-x="1792" d="M133 743q0 190 77 338.5t210 243.5q202 152 483 152q199 0 352 -72l121 186q21 41 66 15l43 -27q40 -22 14 -66l-117 -178q136 -103 206.5 -255t70.5 -332q1 -201 -81 -366.5t-228 -268.5q-188 -136 -473 -136q-174 0 -328 72l-115 -176q-23 -39 -65 -14l-43 28 q-42 23 -15 64l111 172q-145 111 -217 272t-72 348zM340 764q0 -304 188 -475l629 958q-119 58 -274 58q-202 0 -351 -115q-89 -69 -140.5 -181t-51.5 -245zM645 203q106 -53 232 -53h16q209 0 340 96q105 78 162 203.5t57 279.5q0 131 -44.5 245t-133.5 195z" />
<glyph unicode="&#xd9;" horiz-adv-x="1583" d="M199 705v700q0 49 51 49h98q49 0 49 -49v-703q0 -156 18 -252t70 -165q102 -133 320 -133q199 0 295 120q54 66 76 158t22 242v733q0 49 49 49h88q49 0 49 -49v-705q0 -203 -28.5 -324.5t-108.5 -211.5q-71 -84 -188 -135.5t-271 -51.5q-330 0 -477 201q-64 86 -88 207 t-24 320zM541 1833l8 76q9 45 51 28l401 -196q36 -16 27 -53l-10 -58q-3 -22 -17 -29.5t-34 1.5l-398 178q-34 15 -28 53z" />
<glyph unicode="&#xda;" horiz-adv-x="1583" d="M199 705v700q0 49 51 49h98q49 0 49 -49v-703q0 -156 18 -252t70 -165q102 -133 320 -133q199 0 295 120q54 66 76 158t22 242v733q0 49 49 49h88q49 0 49 -49v-705q0 -203 -28.5 -324.5t-108.5 -211.5q-71 -84 -188 -135.5t-271 -51.5q-330 0 -477 201q-64 86 -88 207 t-24 320zM569 1688q-9 37 27 53l399 196q46 19 52 -28l10 -78q6 -36 -31 -51l-395 -178q-43 -19 -53 28z" />
<glyph unicode="&#xdb;" horiz-adv-x="1583" d="M199 705v700q0 49 51 49h98q49 0 49 -49v-703q0 -156 18 -252t70 -165q102 -133 320 -133q199 0 295 120q54 66 76 158t22 242v733q0 49 49 49h88q49 0 49 -49v-705q0 -203 -28.5 -324.5t-108.5 -211.5q-71 -84 -188 -135.5t-271 -51.5q-330 0 -477 201q-64 86 -88 207 t-24 320zM451 1642q-29 37 4 60l319 248q30 21 60 0l305 -240q33 -27 4 -59l-53 -49q-28 -28 -60 -5l-237 193l-246 -191q-32 -26 -60 5z" />
<glyph unicode="&#xdc;" horiz-adv-x="1583" d="M199 705v700q0 49 51 49h98q49 0 49 -49v-703q0 -156 18 -252t70 -165q102 -133 320 -133q199 0 295 120q54 66 76 158t22 242v733q0 49 49 49h88q49 0 49 -49v-705q0 -203 -28.5 -324.5t-108.5 -211.5q-71 -84 -188 -135.5t-271 -51.5q-330 0 -477 201q-64 86 -88 207 t-24 320zM475 1759q0 49 30 80t83 31q52 0 80 -31.5t28 -81.5q0 -55 -31 -87t-81 -32q-48 0 -78.5 35t-30.5 86zM893 1759q0 49 30 80t83 31q52 0 80 -31.5t28 -81.5q0 -55 -31.5 -87t-81.5 -32q-48 0 -78 35t-30 86z" />
<glyph unicode="&#xdd;" horiz-adv-x="1361" d="M66.5 1437q9.5 17 39.5 17h123q42 0 62 -33l405 -614l398 614q20 33 59 33h102q30 0 40 -17t-7 -42l-506 -764v-582q0 -49 -49 -49h-98q-49 0 -49 49v580l-512 766q-17 25 -7.5 42zM508 1688q-9 37 27 53l399 196q45 19 51 -28l10 -78q6 -37 -30 -51l-396 -178 q-43 -19 -53 28z" />
<glyph unicode="&#xde;" horiz-adv-x="1245" d="M209 49v1356q0 49 49 49h98q50 0 50 -49v-180h75q148 0 253.5 -23.5t193.5 -83.5q182 -127 182 -358q0 -135 -65.5 -245.5t-184.5 -168.5q-125 -64 -295 -55q-49 3 -49 49v63q0 47 41 50q133 -6 215 45q63 39 99 103t36 144q0 161 -123 242q-101 68 -305 68h-73v-1006 q0 -49 -50 -49h-98q-49 0 -49 49z" />
<glyph unicode="&#xdf;" horiz-adv-x="1415" d="M29 905v39q0 44 43 47l118 15v12q0 147 25 239q38 154 160.5 244t337.5 90q110 0 197.5 -27t141 -73t81.5 -103t28 -120q0 -60 -18.5 -111t-48 -86.5t-65 -66.5t-71 -58t-65 -53t-48 -58.5t-18.5 -68.5q0 -54 35.5 -92t128.5 -70l47 -16q90 -33 146.5 -84.5t76 -101 t19.5 -105.5q0 -43 -12.5 -85.5t-42.5 -84.5t-73.5 -74t-111 -51.5t-149.5 -19.5q-134 0 -260 53q-37 11 -37 51l-2 59q-3 39 33 39q8 0 41 -13t91 -25.5t126 -12.5q99 0 151.5 46t52.5 106q0 47 -34.5 86.5t-130.5 74.5l-48 17q-121 44 -178 117t-57 163q0 53 18.5 98 t47.5 77t64.5 61.5t71 57.5t64.5 57.5t47.5 68.5t18.5 84q0 35 -15 68t-45.5 63t-87 48t-131.5 18q-278 0 -309 -268q-6 -46 -6 -125v-1004q0 -47 -45 -47h-94q-48 0 -48 47v811h-116q-45 0 -45 47z" />
<glyph unicode="&#xe0;" horiz-adv-x="1079" d="M90 250q0 51 15 95.5t56 91t106 79.5t174 54.5t251 23.5v35q0 118 -20 164q-48 102 -199 102q-69 0 -133 -16.5t-103.5 -33t-48.5 -16.5q-26 0 -32 39l-4 45q-2 24 7 39.5t34 28.5q142 68 299 68q245 0 333 -150q30 -50 39.5 -112t9.5 -160v-375q0 -74 23 -103t84 -34 q29 -4 40 -15.5t9 -33.5l-2 -31q-3 -44 -43 -49q-29 -4 -80 -4q-147 0 -186 120q-131 -125 -316 -125q-137 0 -225 75t-88 198zM176 1495l23 82q13 43 51 18l383 -266q30 -18 18 -51l-18 -57q-6 -19 -20 -24.5t-31 3.5l-385 246q-31 16 -21 49zM268 268q0 -64 48.5 -105.5 t134.5 -41.5q131 0 241 94v246q-119 2 -205.5 -14t-132 -45.5t-66 -62.5t-20.5 -71z" />
<glyph unicode="&#xe1;" horiz-adv-x="1079" d="M90 250q0 51 15 95.5t56 91t106 79.5t174 54.5t251 23.5v35q0 118 -20 164q-48 102 -199 102q-69 0 -133 -16.5t-103.5 -33t-48.5 -16.5q-26 0 -32 39l-4 45q-2 24 7 39.5t34 28.5q142 68 299 68q245 0 333 -150q30 -50 39.5 -112t9.5 -160v-375q0 -74 23 -103t84 -34 q29 -4 40 -15.5t9 -33.5l-2 -31q-3 -44 -43 -49q-29 -4 -80 -4q-147 0 -186 120q-131 -125 -316 -125q-137 0 -225 75t-88 198zM268 268q0 -64 48.5 -105.5t134.5 -41.5q131 0 241 94v246q-119 2 -205.5 -14t-132 -45.5t-66 -62.5t-20.5 -71zM322 1278q-12 36 18 51l383 266 q39 22 51 -18l23 -82q10 -33 -21 -49l-385 -246q-38 -18 -51 21z" />
<glyph unicode="&#xe2;" horiz-adv-x="1079" d="M90 250q0 51 15 95.5t56 91t106 79.5t174 54.5t251 23.5v35q0 118 -20 164q-48 102 -199 102q-69 0 -133 -16.5t-103.5 -33t-48.5 -16.5q-26 0 -32 39l-4 45q-2 24 7 39.5t34 28.5q142 68 299 68q245 0 333 -150q30 -50 39.5 -112t9.5 -160v-375q0 -74 23 -103t84 -34 q29 -4 40 -15.5t9 -33.5l-2 -31q-3 -44 -43 -49q-29 -4 -80 -4q-147 0 -186 120q-131 -125 -316 -125q-137 0 -225 75t-88 198zM162 1247q-29 26 2 53l311 283q26 23 55 0l293 -278q28 -28 0 -56l-57 -45q-28 -24 -55 0l-224 217l-229 -211q-29 -26 -55 0zM268 268 q0 -64 48.5 -105.5t134.5 -41.5q131 0 241 94v246q-119 2 -205.5 -14t-132 -45.5t-66 -62.5t-20.5 -71z" />
<glyph unicode="&#xe3;" horiz-adv-x="1079" d="M90 250q0 51 15 95.5t56 91t106 79.5t174 54.5t251 23.5v35q0 118 -20 164q-48 102 -199 102q-69 0 -133 -16.5t-103.5 -33t-48.5 -16.5q-26 0 -32 39l-4 45q-2 24 7 39.5t34 28.5q142 68 299 68q245 0 333 -150q30 -50 39.5 -112t9.5 -160v-375q0 -74 23 -103t84 -34 q29 -4 40 -15.5t9 -33.5l-2 -31q-3 -44 -43 -49q-29 -4 -80 -4q-147 0 -186 120q-131 -125 -316 -125q-137 0 -225 75t-88 198zM131 1278q24 64 52.5 107.5t60 64.5t59.5 29t62 8q47 0 141 -35l26 -10q56 -21 84 -21q18 0 32 4t40 28t49 69q19 32 51 24l39 -14 q40 -10 25 -51q-78 -209 -234 -209q-47 0 -141 35l-28 10q-54 20 -82 20q-19 0 -32.5 -3t-40 -26.5t-48.5 -68.5q-20 -33 -51 -25l-39 13q-40 12 -25 51zM268 268q0 -64 48.5 -105.5t134.5 -41.5q131 0 241 94v246q-119 2 -205.5 -14t-132 -45.5t-66 -62.5t-20.5 -71z" />
<glyph unicode="&#xe4;" horiz-adv-x="1079" d="M90 250q0 51 15 95.5t56 91t106 79.5t174 54.5t251 23.5v35q0 118 -20 164q-48 102 -199 102q-69 0 -133 -16.5t-103.5 -33t-48.5 -16.5q-26 0 -32 39l-4 45q-2 24 7 39.5t34 28.5q142 68 299 68q245 0 333 -150q30 -50 39.5 -112t9.5 -160v-375q0 -74 23 -103t84 -34 q29 -4 40 -15.5t9 -33.5l-2 -31q-3 -44 -43 -49q-29 -4 -80 -4q-147 0 -186 120q-131 -125 -316 -125q-137 0 -225 75t-88 198zM178 1391q0 51 30 82.5t83 31.5q52 0 80 -32t28 -84q0 -57 -30.5 -88t-81.5 -31q-49 0 -79 34t-30 87zM268 268q0 -64 48.5 -105.5t134.5 -41.5 q131 0 241 94v246q-119 2 -205.5 -14t-132 -45.5t-66 -62.5t-20.5 -71zM582 1391q0 51 30.5 82.5t83.5 31.5q52 0 80.5 -32.5t28.5 -83.5q0 -56 -32 -87.5t-81 -31.5q-50 0 -80 34t-30 87z" />
<glyph unicode="&#xe5;" horiz-adv-x="1079" d="M90 250q0 51 15 95.5t56 91t106 79.5t174 54.5t251 23.5v35q0 118 -20 164q-48 102 -199 102q-69 0 -133 -16.5t-103.5 -33t-48.5 -16.5q-26 0 -32 39l-4 45q-2 24 7 39.5t34 28.5q142 68 299 68q245 0 333 -150q30 -50 39.5 -112t9.5 -160v-375q0 -74 23 -103t84 -34 q29 -4 40 -15.5t9 -33.5l-2 -31q-3 -44 -43 -49q-29 -4 -80 -4q-147 0 -186 120q-131 -125 -316 -125q-137 0 -225 75t-88 198zM233 1395q0 112 74 183t189 71q114 0 184 -66t70 -176t-74.5 -181t-190.5 -71q-113 0 -182.5 66t-69.5 174zM268 268q0 -64 48.5 -105.5 t134.5 -41.5q131 0 241 94v246q-119 2 -205.5 -14t-132 -45.5t-66 -62.5t-20.5 -71zM371 1407q0 -71 32.5 -110.5t88.5 -39.5q54 0 87 36t33 102q0 71 -32.5 111t-87.5 40q-54 0 -87.5 -36t-33.5 -103z" />
<glyph unicode="&#xe6;" horiz-adv-x="1701" d="M90 250q0 51 15 95.5t56 91t106 79.5t174 54.5t251 23.5v35q0 118 -20 164q-48 102 -199 102q-70 0 -133.5 -16.5t-102.5 -33t-49 -16.5q-15 0 -22 9t-10 30l-4 45q-6 44 41 68q142 68 299 68q246 0 325 -156q62 77 153 117.5t201 40.5q190 0 300 -129.5t98 -362.5 q0 -45 -49 -45h-646q-1 -181 103.5 -281t282.5 -100q74 0 135.5 13.5t98 26.5t48.5 13q33 0 33 -45l-4 -45q0 -39 -35 -53q-135 -60 -299 -63q-146 -1 -255.5 46t-174.5 132q-73 -84 -175 -132.5t-222 -48.5q-142 0 -231 74.5t-89 198.5zM268 268q0 -65 49 -106t142 -41 q75 0 151 39t129 108q-39 91 -45 193q-120 2 -206.5 -14t-132.5 -45.5t-66.5 -62.5t-20.5 -71zM879 643l507 2q1 125 -65.5 197.5t-177.5 72.5q-103 0 -179 -72t-85 -200z" />
<glyph unicode="&#xe7;" horiz-adv-x="1034" d="M111 504q0 134 38 238.5t106 171t159.5 101t201.5 34.5q115 0 222 -35q28 -9 37.5 -23t7.5 -39l-6 -59q-3 -37 -37 -37q-5 0 -33.5 8.5t-77.5 17.5t-106 9q-145 0 -233.5 -89.5t-88.5 -271.5q0 -189 95 -290t245 -101q55 0 105.5 11.5t83 23.5t42.5 12q31 0 31 -39 l-2 -61q0 -21 -10.5 -34t-40.5 -25q-107 -45 -234 -45q-236 0 -370.5 142.5t-134.5 379.5zM401 -416q0 27 23 27q3 0 37 -8.5t69 -8.5q51 0 78 23.5t27 58.5q0 44 -41 77t-121 48q-34 6 -44.5 14t-6.5 25l8 37q5 27 47 27q65 0 133 -25t119 -78t51 -120q0 -85 -63 -144 t-170 -59q-62 0 -115 20q-31 8 -31 37v49z" />
<glyph unicode="&#xe8;" horiz-adv-x="1114" d="M102 528q0 236 132.5 379.5t349.5 143.5q189 0 299 -129.5t100 -362.5q-6 -45 -49 -45h-647q-1 -181 103 -281t282 -100q73 0 136 13.5t100 26.5t46 13q33 0 33 -45l-2 -45q-3 -39 -37 -53q-135 -60 -299 -63q-261 -3 -404 146.5t-143 401.5zM256 1495l23 82q13 43 51 18 l383 -266q30 -18 18 -51l-18 -57q-6 -19 -20 -24.5t-31 3.5l-386 246q-30 15 -20 49zM291 643l508 2q1 125 -65.5 197.5t-176.5 72.5q-104 0 -180.5 -72t-85.5 -200z" />
<glyph unicode="&#xe9;" horiz-adv-x="1114" d="M102 528q0 236 132.5 379.5t349.5 143.5q189 0 299 -129.5t100 -362.5q-6 -45 -49 -45h-647q-1 -181 103 -281t282 -100q73 0 136 13.5t100 26.5t46 13q33 0 33 -45l-2 -45q-3 -39 -37 -53q-135 -60 -299 -63q-261 -3 -404 146.5t-143 401.5zM291 643l508 2 q1 125 -65.5 197.5t-176.5 72.5q-104 0 -180.5 -72t-85.5 -200zM391 1278q-12 35 19 51l383 266q39 22 51 -18l22 -82q10 -34 -20 -49l-385 -246q-38 -18 -51 21z" />
<glyph unicode="&#xea;" horiz-adv-x="1114" d="M102 528q0 236 132.5 379.5t349.5 143.5q189 0 299 -129.5t100 -362.5q-6 -45 -49 -45h-647q-1 -181 103 -281t282 -100q73 0 136 13.5t100 26.5t46 13q33 0 33 -45l-2 -45q-3 -39 -37 -53q-135 -60 -299 -63q-261 -3 -404 146.5t-143 401.5zM238 1247q-29 26 2 53 l311 283q26 23 55 0l293 -278q28 -28 0 -56l-57 -45q-28 -25 -56 0l-223 217l-229 -211q-29 -26 -55 0zM291 643l508 2q1 125 -65.5 197.5t-176.5 72.5q-104 0 -180.5 -72t-85.5 -200z" />
<glyph unicode="&#xeb;" horiz-adv-x="1114" d="M102 528q0 236 132.5 379.5t349.5 143.5q189 0 299 -129.5t100 -362.5q-6 -45 -49 -45h-647q-1 -181 103 -281t282 -100q73 0 136 13.5t100 26.5t46 13q33 0 33 -45l-2 -45q-3 -39 -37 -53q-135 -60 -299 -63q-261 -3 -404 146.5t-143 401.5zM254 1391q0 51 30 82.5 t83 31.5q52 0 80 -32t28 -84q0 -57 -31 -88t-82 -31q-49 0 -78.5 34t-29.5 87zM291 643l508 2q1 125 -65.5 197.5t-176.5 72.5q-104 0 -180.5 -72t-85.5 -200zM657 1391q0 50 31 82t84 32q52 0 80.5 -32.5t28.5 -83.5q0 -56 -32 -87.5t-81 -31.5q-50 0 -80.5 34t-30.5 87z " />
<glyph unicode="&#xec;" horiz-adv-x="501" d="M25 1548l30 62q12 22 29.5 24.5t36.5 -16.5l309 -328q30 -27 8 -63l-22 -39q-24 -44 -64 -12l-315 309q-32 25 -12 63zM158 47v920q0 41 43 47l94 8q49 3 49 -43v-932q0 -47 -47 -47h-92q-47 0 -47 47z" />
<glyph unicode="&#xed;" horiz-adv-x="501" d="M66 1227q-23 38 8 63l311 330q17 17 33.5 14.5t27.5 -24.5l33 -62q19 -36 -12 -63l-317 -309q-17 -15 -34.5 -12t-29.5 24zM158 47v920q0 41 43 47l94 8q49 3 49 -43v-932q0 -47 -47 -47h-92q-47 0 -47 47z" />
<glyph unicode="&#xee;" horiz-adv-x="501" d="M-76 1247q-29 26 2 53l312 283q26 23 55 0l293 -278q28 -28 0 -56l-58 -45q-28 -24 -55 0l-223 217l-230 -211q-29 -26 -55 0zM158 47v920q0 41 43 47l94 8q49 3 49 -43v-932q0 -47 -47 -47h-94q-45 0 -45 47z" />
<glyph unicode="&#xef;" horiz-adv-x="501" d="M-61 1391q0 51 29.5 82.5t82.5 31.5q52 0 80.5 -32.5t28.5 -83.5q0 -57 -31 -88t-82 -31q-49 0 -78.5 34t-29.5 87zM158 47v920q0 41 43 47l94 8q49 3 49 -43v-932q0 -47 -47 -47h-94q-45 0 -45 47zM342 1391q0 50 31 82t84 32q52 0 80 -32t28 -84q0 -57 -31.5 -88 t-80.5 -31q-50 0 -80.5 34t-30.5 87z" />
<glyph unicode="&#xf0;" horiz-adv-x="1193" d="M109 426q0 152 60.5 266t166.5 176q135 76 317 76q108 0 199 -24q-50 227 -184 352l-226 -152q-32 -19 -55 6l-33 43q-25 32 11 54l190 129q-130 81 -313 96q-47 6 -41 51l8 53q6 44 49 41q260 -12 447 -139l151 102q32 19 55 -6l33 -43q25 -28 -10 -53l-121 -82 q123 -116 191.5 -290.5t68.5 -393.5q0 -348 -146 -530.5t-388 -182.5q-193 0 -311.5 122t-118.5 329zM297 449q0 -155 77 -239.5t185 -84.5q57 0 112 23t91 65q117 131 117 440q0 53 -7 121q-103 33 -202 33q-150 0 -238 -66q-135 -98 -135 -292z" />
<glyph unicode="&#xf1;" horiz-adv-x="1163" d="M158 47v930q0 46 43 49l80 8q46 3 49 -41l2 -86q126 142 317 142q117 0 199.5 -50.5t122.5 -144.5q39 -89 39 -293v-514q0 -47 -45 -47h-95q-47 0 -47 47v490q0 55 -4 125q-8 106 -62.5 166.5t-160.5 60.5q-141 0 -252 -117v-725q0 -47 -47 -47h-92q-47 0 -47 47z M223 1278q24 64 52.5 107.5t60 64.5t59.5 29t62 8q47 0 141 -35l27 -10q56 -21 84 -21q13 0 23 2.5t26.5 11t34.5 30.5t36 57q19 32 52 24l39 -14q39 -9 24 -51q-45 -120 -104 -164.5t-129 -44.5q-48 0 -142 35l-28 10q-54 20 -82 20q-19 0 -32.5 -3t-40 -26.5t-48.5 -68.5 q-20 -33 -51 -25l-39 13q-40 12 -25 51z" />
<glyph unicode="&#xf2;" horiz-adv-x="1218" d="M111 520q0 245 144 388t370 143q217 0 350 -138t133 -374q0 -132 -40 -239.5t-109.5 -176.5t-160 -106t-194.5 -37q-103 0 -192.5 37t-156.5 105t-105.5 170.5t-38.5 227.5zM299 530q0 -170 84.5 -284.5t220.5 -114.5h17q132 0 214.5 107t82.5 284q0 168 -82.5 272.5 t-227.5 104.5q-139 0 -224 -96.5t-85 -272.5zM299 1495l23 82q13 43 51 18l383 -266q30 -18 18 -51l-18 -57q-6 -19 -20 -24.5t-31 3.5l-386 246q-30 15 -20 49z" />
<glyph unicode="&#xf3;" horiz-adv-x="1218" d="M111 520q0 245 144 388t370 143q217 0 350 -138t133 -374q0 -132 -40 -239.5t-109.5 -176.5t-160 -106t-194.5 -37q-103 0 -192.5 37t-156.5 105t-105.5 170.5t-38.5 227.5zM299 530q0 -170 84.5 -284.5t220.5 -114.5h17q132 0 214.5 107t82.5 284q0 168 -82.5 272.5 t-227.5 104.5q-139 0 -224 -96.5t-85 -272.5zM432 1278q-12 35 19 51l383 266q39 22 51 -18l22 -82q10 -34 -20 -49l-385 -246q-38 -18 -51 21z" />
<glyph unicode="&#xf4;" horiz-adv-x="1218" d="M111 520q0 245 144 388t370 143q217 0 350 -138t133 -374q0 -132 -40 -239.5t-109.5 -176.5t-160 -106t-194.5 -37q-103 0 -192.5 37t-156.5 105t-105.5 170.5t-38.5 227.5zM281 1247q-29 26 2 53l311 283q26 23 55 0l293 -278q28 -28 0 -56l-57 -45q-28 -25 -56 0 l-223 217l-229 -211q-29 -26 -55 0zM299 530q0 -170 84.5 -284.5t220.5 -114.5h17q132 0 214.5 107t82.5 284q0 168 -82.5 272.5t-227.5 104.5q-139 0 -224 -96.5t-85 -272.5z" />
<glyph unicode="&#xf5;" horiz-adv-x="1218" d="M111 520q0 245 144 388t370 143q217 0 350 -138t133 -374q0 -132 -40 -239.5t-109.5 -176.5t-160 -106t-194.5 -37q-103 0 -192.5 37t-156.5 105t-105.5 170.5t-38.5 227.5zM248 1278q24 64 52.5 107.5t59.5 64.5t59.5 29t61.5 8q48 0 142 -35l26 -10q56 -21 84 -21 q18 0 32 4t40 28t49 69q19 32 51 24l39 -14q40 -10 25 -51q-78 -209 -234 -209q-47 0 -141 35l-29 10q-54 20 -82 20q-19 0 -32.5 -3t-40 -26.5t-48.5 -68.5q-20 -33 -51 -25l-39 13q-39 11 -24 51zM299 530q0 -170 84.5 -284.5t220.5 -114.5h17q132 0 214.5 107t82.5 284 q0 168 -82.5 272.5t-227.5 104.5q-139 0 -224 -96.5t-85 -272.5z" />
<glyph unicode="&#xf6;" horiz-adv-x="1218" d="M111 520q0 245 144 388t370 143q217 0 350 -138t133 -374q0 -132 -40 -239.5t-109.5 -176.5t-160 -106t-194.5 -37q-103 0 -192.5 37t-156.5 105t-105.5 170.5t-38.5 227.5zM297 1391q0 51 30 82.5t83 31.5q52 0 80 -32t28 -84q0 -57 -30.5 -88t-81.5 -31q-49 0 -79 34 t-30 87zM299 530q0 -170 84.5 -284.5t220.5 -114.5h17q132 0 214.5 107t82.5 284q0 168 -82.5 272.5t-227.5 104.5q-139 0 -224 -96.5t-85 -272.5zM700 1391q0 50 31 82t84 32q52 0 80.5 -32.5t28.5 -83.5q0 -56 -32 -87.5t-81 -31.5q-50 0 -80.5 34t-30.5 87z" />
<glyph unicode="&#xf7;" horiz-adv-x="1150" d="M74 588v67q0 39 39 39h897q39 0 39 -39v-67q0 -39 -39 -39h-897q-39 0 -39 39zM469 242q0 42 29 70t73 28q43 0 70 -30.5t27 -73.5t-29 -72t-74 -29q-43 0 -69.5 31t-26.5 76zM469 999q0 42 29 71.5t73 29.5q43 0 70 -32t27 -75t-28.5 -70.5t-74.5 -27.5q-43 0 -69.5 30 t-26.5 74z" />
<glyph unicode="&#xf8;" horiz-adv-x="1218" d="M111 520q0 245 144 388t370 143q119 0 217 -45l112 176q26 41 68 16l27 -16q36 -23 12 -64l-115 -180q162 -140 162 -399q0 -132 -40 -239.5t-109.5 -176.5t-160 -106t-194.5 -37q-127 0 -233 53l-99 -154q-26 -40 -67 -16l-27 16q-36 23 -12 64l102 161 q-157 148 -157 416zM299 530q0 -159 78 -266l375 602q-65 35 -144 35q-139 0 -224 -97.5t-85 -273.5zM461 172q65 -43 143 -43h17q132 0 215.5 108t83.5 285q0 156 -82 258z" />
<glyph unicode="&#xf9;" horiz-adv-x="1163" d="M154 469v508q0 41 43 47l94 8q49 6 49 -43v-497q0 -70 6 -125q6 -106 61 -167t160 -61q141 0 252 119v719q0 41 45 47l92 8q23 3 36.5 -8.5t13.5 -34.5v-938q0 -44 -43 -47l-78 -8q-49 -3 -49 41l-5 84q-125 -141 -317 -141q-115 0 -197.5 50t-123.5 144q-39 91 -39 295z M260 1495l23 82q13 43 51 18l383 -266q30 -18 18 -51l-18 -57q-6 -19 -20 -24.5t-31 3.5l-385 246q-31 16 -21 49z" />
<glyph unicode="&#xfa;" horiz-adv-x="1163" d="M154 469v508q0 41 43 47l94 8q49 6 49 -43v-497q0 -70 6 -125q6 -106 61 -167t160 -61q141 0 252 119v719q0 41 45 47l92 8q23 3 36.5 -8.5t13.5 -34.5v-938q0 -44 -43 -47l-78 -8q-49 -3 -49 41l-5 84q-125 -141 -317 -141q-115 0 -197.5 50t-123.5 144q-39 91 -39 295z M416 1278q-12 36 18 51l383 266q39 22 51 -18l23 -82q10 -33 -21 -49l-385 -246q-38 -18 -51 21z" />
<glyph unicode="&#xfb;" horiz-adv-x="1163" d="M154 469v508q0 41 43 47l94 8q49 6 49 -43v-497q0 -70 6 -125q6 -106 61 -167t160 -61q141 0 252 119v719q0 41 45 47l92 8q23 3 36.5 -8.5t13.5 -34.5v-938q0 -44 -43 -47l-78 -8q-49 -3 -49 41l-5 84q-125 -141 -317 -141q-115 0 -197.5 50t-123.5 144q-39 91 -39 295z M252 1247q-29 26 2 53l311 283q27 24 56 0l292 -278q28 -28 0 -56l-57 -45q-28 -24 -55 0l-223 217l-230 -211q-29 -26 -55 0z" />
<glyph unicode="&#xfc;" horiz-adv-x="1163" d="M154 469v508q0 41 43 47l94 8q49 6 49 -43v-497q0 -70 6 -125q6 -106 61 -167t160 -61q141 0 252 119v719q0 41 45 47l92 8q23 3 36.5 -8.5t13.5 -34.5v-938q0 -44 -43 -47l-78 -8q-49 -3 -49 41l-5 84q-125 -141 -317 -141q-115 0 -197.5 50t-123.5 144q-39 91 -39 295z M268 1391q0 51 30 82.5t83 31.5q52 0 80 -32t28 -84q0 -57 -30.5 -88t-81.5 -31q-49 0 -79 34t-30 87zM672 1391q0 51 30.5 82.5t83.5 31.5q52 0 80.5 -32.5t28.5 -83.5q0 -56 -32 -87.5t-81 -31.5q-50 0 -80 34t-30 87z" />
<glyph unicode="&#xfd;" horiz-adv-x="1105" d="M41 977q-7 25 2.5 39t34.5 14h115q39 0 53 -39q187 -581 325 -923q87 156 168 432q61 215 103 487q1 20 14 31.5t33 11.5h94q49 0 43 -49q-38 -257 -123 -535q-128 -411 -305 -634q-166 -213 -451 -334q-44 -15 -61 26l-29 70q-22 43 25 59q254 113 369 269 q-205 478 -410 1075zM356 1278q-12 35 19 51l383 266q39 22 51 -18l22 -82q10 -34 -20 -49l-385 -246q-38 -18 -51 21z" />
<glyph unicode="&#xfe;" horiz-adv-x="1193" d="M158 -465v1989q0 41 43 47l94 8q49 3 49 -43v-446q0 -46 -2.5 -94t-5.5 -72l-2 -25q118 150 319 150q187 0 308.5 -133.5t121.5 -374.5q0 -260 -148 -412t-415 -152q-89 0 -176 19v-461q0 -47 -47 -47h-92q-47 0 -47 47zM344 160q90 -33 201 -33q161 0 253.5 100.5 t92.5 286.5q0 184 -82.5 280.5t-198.5 96.5q-151 0 -266 -125v-606z" />
<glyph unicode="&#xff;" horiz-adv-x="1105" d="M41 977q-7 25 2.5 39t34.5 14h115q39 0 53 -39q187 -581 325 -923q87 156 168 432q61 215 103 487q1 20 14 31.5t33 11.5h94q49 0 43 -49q-38 -257 -123 -535q-128 -411 -305 -634q-166 -213 -451 -334q-44 -15 -61 26l-29 70q-22 43 25 59q254 113 369 269 q-205 478 -410 1075zM213 1391q0 51 30 82.5t83 31.5q52 0 80 -32t28 -84q0 -57 -30.5 -88t-81.5 -31q-49 0 -79 34t-30 87zM616 1391q0 50 31 82t84 32q52 0 80.5 -32.5t28.5 -83.5q0 -56 -32 -87.5t-81 -31.5q-50 0 -80.5 34t-30.5 87z" />
<glyph unicode="&#x152;" horiz-adv-x="2177" d="M133 743q0 193 72 344t201 244q196 146 489 146q108 0 268 -23h729q52 0 52 -49v-70q0 -49 -52 -49h-530v-467h489q50 0 50 -49v-63q0 -50 -50 -50h-489v-489h577q53 0 50 -51l-7 -70q-3 -47 -51 -47h-768q-186 -23 -280 -23q-300 0 -494 160q-125 104 -190.5 262 t-65.5 344zM340 764q0 -315 180 -483q141 -131 365 -131h14q133 0 264 30v1094q-130 31 -274 31q-227 0 -367 -111q-87 -65 -134.5 -180t-47.5 -250z" />
<glyph unicode="&#x153;" horiz-adv-x="1923" d="M106 520q0 163 67 284.5t183 184t265 62.5q128 0 228 -52.5t161 -148.5q62 97 160.5 149t222.5 52q189 0 300 -130t99 -362q-3 -45 -49 -45h-645q-1 -182 102 -281.5t283 -99.5q70 0 133.5 13.5t101.5 26.5t47 13q34 0 31 -45l-2 -45q0 -39 -35 -53q-135 -60 -299 -63 q-156 -1 -272.5 55.5t-181.5 163.5q-65 -106 -171.5 -162.5t-234.5 -56.5q-103 0 -193 37t-157 105t-105.5 170.5t-38.5 227.5zM295 530q0 -171 84 -285t221 -114h14q132 0 215.5 107t83.5 284q0 168 -82.5 272.5t-228.5 104.5q-138 0 -222.5 -97t-84.5 -272zM1102 643 l508 2q1 124 -66.5 197t-177.5 73q-104 0 -179.5 -72t-84.5 -200z" />
<glyph unicode="&#x178;" horiz-adv-x="1361" d="M66.5 1437q9.5 17 39.5 17h123q42 0 62 -33l405 -614l398 614q20 33 59 33h102q30 0 40 -17t-7 -42l-506 -764v-582q0 -49 -49 -49h-98q-49 0 -49 49v580l-512 766q-17 25 -7.5 42zM356 1759q0 49 30 80t83 31q52 0 80.5 -32t28.5 -81q0 -55 -31.5 -87t-81.5 -32 q-48 0 -78.5 35t-30.5 86zM774 1759q0 49 30 80t83 31q52 0 80 -31.5t28 -81.5q0 -55 -31 -87t-81 -32q-48 0 -78.5 35t-30.5 86z" />
<glyph unicode="&#x2c6;" horiz-adv-x="923" d="M131 1247q-29 26 2 53l311 283q27 24 56 0l293 -278q28 -28 0 -56l-58 -45q-27 -24 -55 0l-223 217l-230 -211q-29 -26 -55 0z" />
<glyph unicode="&#x2dc;" horiz-adv-x="954" d="M117 1278q24 64 52.5 107.5t59.5 64.5t59.5 29t61.5 8q48 0 142 -35l26 -10q56 -21 84 -21q18 0 32 4t40 28t49 69q19 32 51 24l39 -14q40 -10 25 -51q-78 -209 -234 -209q-47 0 -141 35l-29 10q-54 20 -82 20q-19 0 -32.5 -3t-40 -26.5t-48.5 -68.5q-20 -33 -51 -25 l-39 13q-39 11 -24 51z" />
<glyph unicode="&#x2000;" horiz-adv-x="993" />
<glyph unicode="&#x2001;" horiz-adv-x="1987" />
<glyph unicode="&#x2002;" horiz-adv-x="993" />
<glyph unicode="&#x2003;" horiz-adv-x="1987" />
<glyph unicode="&#x2004;" horiz-adv-x="662" />
<glyph unicode="&#x2005;" horiz-adv-x="496" />
<glyph unicode="&#x2006;" horiz-adv-x="331" />
<glyph unicode="&#x2007;" horiz-adv-x="331" />
<glyph unicode="&#x2008;" horiz-adv-x="248" />
<glyph unicode="&#x2009;" horiz-adv-x="397" />
<glyph unicode="&#x200a;" horiz-adv-x="110" />
<glyph unicode="&#x2010;" horiz-adv-x="641" d="M47 526v74q0 39 39 39h469q39 0 39 -39v-74q0 -39 -39 -39h-469q-39 0 -39 39z" />
<glyph unicode="&#x2011;" horiz-adv-x="641" d="M47 526v74q0 39 39 39h469q39 0 39 -39v-74q0 -39 -39 -39h-469q-39 0 -39 39z" />
<glyph unicode="&#x2012;" horiz-adv-x="641" d="M47 526v74q0 39 39 39h469q39 0 39 -39v-74q0 -39 -39 -39h-469q-39 0 -39 39z" />
<glyph unicode="&#x2013;" horiz-adv-x="1024" d="M41 516v88q0 39 39 39h864q39 0 39 -39v-88q0 -39 -39 -39h-864q-39 0 -39 39z" />
<glyph unicode="&#x2014;" horiz-adv-x="2048" d="M41 516v88q0 39 39 39h1888q39 0 39 -39v-88q0 -39 -39 -39h-1888q-39 0 -39 39z" />
<glyph unicode="&#x2018;" horiz-adv-x="487" d="M98 1229q0 133 119 282q45 55 72.5 81t46.5 26q14 0 47 -23q25 -17 32 -25t7 -18q0 -9 -33.5 -48t-67 -98.5t-32.5 -119.5q0 -43 17.5 -75t34.5 -53t17 -36q0 -25 -34 -49t-76 -24q-70 0 -110 53.5t-40 126.5z" />
<glyph unicode="&#x2019;" horiz-adv-x="487" d="M66 1038q0 9 21 35.5t46 57.5t46 79t20 95q0 34 -11 61.5t-24 42t-24 30.5t-11 29q0 25 34.5 49.5t76.5 24.5q70 0 109.5 -53.5t39.5 -126.5q0 -134 -119 -283q-45 -55 -72 -80.5t-46 -25.5q-17 0 -48 22q-25 17 -31.5 24.5t-6.5 18.5z" />
<glyph unicode="&#x201a;" horiz-adv-x="487" d="M66 -236q0 9 21 35.5t46 57.5t46 79t20 95q0 43 -17.5 75t-35 53t-17.5 36q0 25 34.5 49t76.5 24q70 0 109.5 -53.5t39.5 -126.5q0 -134 -119 -283q-45 -55 -72 -80.5t-46 -25.5q-17 0 -48 22q-25 17 -31.5 24.5t-6.5 18.5z" />
<glyph unicode="&#x201c;" horiz-adv-x="872" d="M98 1241q0 141 150 315q60 72 80 72q14 0 51 -24q39 -23 39 -39q0 -10 -21 -37.5t-46.5 -59t-46.5 -82.5t-21 -102q0 -52 30 -94q7 -10 16.5 -22t13.5 -17.5t7.5 -12.5t3.5 -14q0 -23 -33 -46t-75 -23q-69 0 -108.5 53.5t-39.5 132.5zM508 1239q0 64 29 136t118 169 q34 39 49 51.5t27 12.5q9 0 45 -25q39 -29 39 -41q0 -11 -31.5 -47.5t-63.5 -92t-32 -112.5q0 -52 31 -98q6 -9 18 -23.5t17.5 -24t5.5 -18.5q0 -22 -33 -46.5t-74 -24.5q-66 0 -105.5 53.5t-39.5 130.5z" />
<glyph unicode="&#x201d;" horiz-adv-x="872" d="M57 1057q0 11 31.5 47.5t63.5 92t32 112.5q0 53 -30 98q-6 9 -18 23.5t-17.5 24t-5.5 18.5q0 22 32.5 46.5t73.5 24.5q67 0 106.5 -53.5t39.5 -130.5q0 -64 -29.5 -136t-118.5 -169q-34 -39 -49 -51.5t-27 -12.5q-9 0 -45 25q-39 29 -39 41zM455 1034q0 10 21 37.5 t46.5 59t46.5 82.5t21 102t-31 94q-7 10 -16.5 22t-13.5 17.5t-7.5 12.5t-3.5 14q0 23 33.5 46t75.5 23q69 0 108 -53.5t39 -132.5q0 -143 -149 -316q-59 -71 -80 -71q-14 0 -51 24q-39 23 -39 39z" />
<glyph unicode="&#x201e;" horiz-adv-x="872" d="M57 -219q0 11 31.5 47.5t63.5 92t32 112.5q0 53 -30 98q-6 9 -18 23.5t-17.5 24t-5.5 18.5q0 22 32.5 46.5t73.5 24.5q67 0 106.5 -53.5t39.5 -130.5q0 -64 -29.5 -136t-118.5 -169q-34 -39 -49 -51.5t-27 -12.5q-9 0 -45 25q-39 29 -39 41zM455 -242q0 10 21 37.5 t46.5 59t46.5 82.5t21 102t-31 94q-7 10 -16.5 22t-13.5 17.5t-7.5 12.5t-3.5 14q0 23 33.5 46t75.5 23q69 0 108 -53.5t39 -132.5q0 -63 -30 -137.5t-119 -177.5q-60 -72 -80 -72q-14 0 -51 24q-39 23 -39 39z" />
<glyph unicode="&#x2022;" horiz-adv-x="501" d="M76 768q0 74 50.5 124t127.5 50q76 0 124 -53.5t48 -130.5q0 -72 -53 -122t-129 -50q-74 0 -121 53.5t-47 128.5z" />
<glyph unicode="&#x2026;" horiz-adv-x="1234" d="M119 111q0 53 34 89t91 36q54 0 87.5 -37.5t33.5 -94.5q0 -54 -35 -89t-90 -35q-54 0 -87.5 37t-33.5 94zM494 111q0 53 35 89t92 36q53 0 85.5 -37.5t32.5 -94.5q0 -54 -35 -89t-90 -35q-54 0 -87 37t-33 94zM868 111q0 53 35 89t92 36q54 0 87.5 -37.5t33.5 -94.5 q0 -54 -35 -89t-92 -35q-54 0 -87.5 37t-33.5 94z" />
<glyph unicode="&#x202f;" horiz-adv-x="397" />
<glyph unicode="&#x2039;" horiz-adv-x="677" d="M78 504q-21 27 2 53l364 424q22 28 54 6l63 -51q28 -25 4 -55l-297 -342l307 -363q25 -31 -6 -55l-69 -58q-29 -23 -56 7z" />
<glyph unicode="&#x203a;" horiz-adv-x="677" d="M102 879q-24 31 7 55l69 57q29 23 55 -6l367 -434q21 -27 -2 -53l-365 -424q-22 -28 -53 -6l-63 51q-28 25 -4 55l297 342z" />
<glyph unicode="&#x205f;" horiz-adv-x="496" />
<glyph unicode="&#x20ac;" d="M53 549v47q0 29 29 29h113q-5 42 -5 108q0 24 2 50.5t4 41.5l1 15h-115q-29 0 -29 26v49q0 29 29 29h125q17 134 70 237t131.5 166.5t174.5 95.5t205 32q141 0 252 -39q38 -9 35 -50l-6 -75q-3 -20 -11.5 -28.5t-25.5 -8.5q-7 0 -37 9t-83.5 18.5t-118.5 9.5 q-157 0 -262.5 -92t-124.5 -275h487q16 0 23 -6t8 -23v-49q0 -26 -31 -26h-500q-4 -46 -4 -107q0 -30 1.5 -57t3.5 -39l1 -12h498q16 0 23 -6t8 -23v-47q0 -29 -31 -29h-485q21 -187 126 -282t261 -95q72 0 134 16t99 32t47 16q14 0 22 -11t5 -30l-4 -74q-3 -35 -35 -49 q-132 -63 -295 -63q-238 0 -388.5 142.5t-176.5 397.5h-121q-29 0 -29 29z" />
<glyph unicode="&#x2122;" horiz-adv-x="2095" d="M76 1356v63q0 35 35 35h626q36 0 33 -35l-4 -65q-3 -33 -37 -33h-233v-711q0 -35 -35 -35h-80q-35 0 -35 35v711h-235q-35 0 -35 35zM926 610l32 811q0 33 35 33h127q30 0 39 -27l289 -667l303 670q9 24 39 24h121q33 0 33 -33l32 -811q1 -17 -7.5 -26t-24.5 -9h-76 q-32 0 -35 33l-25 635l-292 -643q-12 -25 -39 -25h-74q-30 0 -39 27l-279 639l-22 -633q-3 -33 -35 -33h-67q-35 0 -35 35z" />
<glyph unicode="&#xe000;" horiz-adv-x="1034" d="M0 0v1034h1034v-1034h-1034z" />
<glyph unicode="&#xfb01;" horiz-adv-x="1210" d="M35 905v39q0 44 43 47l121 15v36q0 138 19.5 236t84.5 172q122 141 383 141q120 0 221 -24q42 -12 39 -56l-6 -55q-6 -39 -43 -39q-6 0 -34.5 5.5t-76.5 11.5t-100 6q-162 0 -237 -84q-30 -33 -44.5 -84.5t-17 -92.5t-2.5 -118v-55h229q23 0 36 -13.5t12 -36.5l-5 -53 q-3 -45 -47 -45h-225v-811q0 -47 -47 -47h-94q-45 0 -45 47v811h-117q-47 0 -47 47zM866 47v920q0 41 43 47l95 8q49 3 49 -43v-932q0 -47 -47 -47h-93q-47 0 -47 47z" />
<glyph unicode="&#xfb02;" horiz-adv-x="1210" d="M35 905v39q0 44 43 47l121 15v36q0 138 19.5 236t84.5 172q122 141 383 141q121 0 211 -22l107 10q49 6 49 -43v-1489q0 -47 -47 -47h-93q-47 0 -47 47v1372q-89 21 -180 21q-162 0 -237 -84q-30 -33 -44.5 -84.5t-17 -92.5t-2.5 -118v-55h229q23 0 36 -13.5t12 -36.5 l-5 -53q-3 -45 -47 -45h-225v-811q0 -47 -47 -47h-94q-45 0 -45 47v811h-117q-47 0 -47 47z" />
</font>
</defs>
</svg>
